<?xml version="1.0" encoding="utf-8"?>
<!-- Generator: Adobe Illustrator 25.4.1, SVG Export Plug-In . SVG Version: 6.00 Build 0)  -->
<svg version="1.1" id="Layer_1" xmlns="http://www.w3.org/2000/svg" xmlns:xlink="http://www.w3.org/1999/xlink" x="0px" y="0px"
	 viewBox="0 0 299 64.8" style="enable-background:new 0 0 299 64.8;" xml:space="preserve">
<style type="text/css">
	.st0{fill:#D7B46D;}
	.st1{enable-background:new    ;}
	.st2{fill:#241096;}
	.st3{fill:#AE033D;}
	.st4{fill:#880655;}
	.st5{fill:#620A6D;}
	.st6{fill:#FFFFFF;}
	.st7{fill:#D40025;}
</style>
<g id="Group_1366">
	<g id="Group_1365" transform="translate(9964.988 1333.831)">
		<g id="Path_4">
			<path class="st0" d="M-9911.6-1273.6c-2.2,1.6-5.1,2-7.6,0.8c-0.5-0.2-0.9-0.5-1.2-0.9c-0.5-0.6-13.4-15.2-13.4-15.2l0,0
				c5.7,1,11.1-2.9,12.1-8.6c0.4-2.6-0.1-5.2-1.5-7.4c-2.5-3.6-7.5-4.8-11.6-4.2c-7.2,1-12.4,7.4-14,14.1
				c-1.7,7.6-0.5,14.8,2.1,21.6c0.6,1.5,1.4,2.9,2.4,4.2c-17.2-7.3-25.2-27.2-17.9-44.4c0.3-0.7,0.6-1.4,1-2.1
				c3.6-6.9,10.1-13.3,18-16c8.3-3.4,19.6-2.7,27.7,1.9c9.9,4.9,17.3,17.2,17.4,28.1C-9897.9-1290.8-9902.8-1280.2-9911.6-1273.6
				L-9911.6-1273.6z"/>
		</g>
		<g id="Path_5">
			<path class="st0" d="M-9939.3-1269.3c-3.7-4-6.6-9.1-4.4-14.5c2.1-4.1,3.7-8.5,4.6-13c0.3,5,3.3,9.4,4.8,14.1
				c0.6,2.3,0.5,4.8-0.3,7c-1,2.5-2.5,4.8-4.4,6.8L-9939.3-1269.3z"/>
		</g>
	</g>
	<g class="st1">
		<path class="st2" d="M180.4,12.7c-0.1-0.5-0.3-1-0.7-1.4c-0.4-0.4-0.8-0.7-1.4-1c-0.6-0.2-1.2-0.4-1.9-0.4c-1.1,0-2,0.3-2.7,0.8
			c-0.7,0.5-1.3,1.3-1.7,2.2s-0.6,2-0.6,3.3c0,1.2,0.2,2.2,0.6,3.2s0.9,1.6,1.7,2.2c0.8,0.5,1.7,0.8,2.8,0.8c1.2,0,2.1-0.3,2.8-0.9
			c0.7-0.6,1.1-1.4,1.3-2.6h4.1c-0.1,1.4-0.5,2.6-1.3,3.7c-0.7,1.1-1.7,1.9-2.9,2.4c-1.2,0.6-2.6,0.9-4.1,0.9
			c-1.9,0-3.5-0.4-4.9-1.3s-2.4-2-3.2-3.5s-1.1-3.1-1.1-5s0.4-3.5,1.1-5s1.8-2.7,3.2-3.5c1.4-0.9,3-1.3,4.9-1.3
			c1.4,0,2.7,0.2,3.9,0.7s2.1,1.2,2.9,2.2c0.7,0.9,1.2,2.1,1.3,3.3H180.4z"/>
		<path class="st2" d="M191.4,13.5L191.4,13.5c0.5-0.7,1.1-1.3,1.8-1.7s1.5-0.6,2.3-0.6c1.7,0,2.9,0.5,3.7,1.4
			c0.8,0.9,1.2,2.3,1.2,4.2v8.7h-3.8v-7.7c0-1.3-0.2-2.2-0.6-2.8c-0.4-0.6-1-0.8-1.9-0.8c-0.9,0-1.5,0.3-2,0.9s-0.7,1.5-0.7,2.8v7.7
			h-3.8V6.2h3.8V13.5z"/>
		<path class="st2" d="M212.1,16.4c0-0.9-0.2-1.6-0.5-2c-0.4-0.4-1-0.6-1.8-0.6c-0.8,0-1.3,0.1-1.7,0.4c-0.4,0.3-0.6,0.7-0.7,1.3
			h-3.8c0.1-1.4,0.7-2.4,1.8-3.1c1.1-0.7,2.7-1.1,4.6-1.1c2.1,0,3.6,0.4,4.5,1.3s1.4,2.3,1.4,4.2v8.9h-3.5l-0.2-1.8h-0.1
			c-0.3,0.6-0.8,1.2-1.6,1.6c-0.7,0.4-1.6,0.6-2.7,0.6c-1,0-1.8-0.2-2.6-0.5c-0.7-0.3-1.3-0.8-1.7-1.5c-0.4-0.7-0.6-1.5-0.6-2.4
			c0-1.6,0.6-2.7,1.8-3.5s2.9-1.1,5.1-1.1h2.1V16.4z M210.5,19.2c-1.2,0-2.1,0.2-2.7,0.5s-0.9,0.8-0.9,1.5c0,0.6,0.2,1.1,0.6,1.4
			c0.4,0.3,0.9,0.5,1.6,0.5c0.6,0,1.1-0.1,1.6-0.4c0.5-0.2,0.8-0.6,1.1-1s0.4-1,0.4-1.6v-0.9H210.5z"/>
		<path class="st2" d="M232.9,11.8c0.7-0.4,1.5-0.6,2.4-0.6c1.5,0,2.7,0.4,3.6,1.3c0.8,0.9,1.2,2.1,1.2,3.7v9.4h-3.8v-7.7
			c0-1.3-0.2-2.2-0.6-2.8c-0.4-0.6-0.9-0.8-1.7-0.8c-0.8,0-1.4,0.3-1.8,0.9s-0.6,1.5-0.6,2.8v7.7h-3.8v-7.7c0-1.3-0.2-2.2-0.6-2.8
			c-0.4-0.6-0.9-0.8-1.7-0.8c-0.8,0-1.4,0.3-1.8,0.9s-0.6,1.5-0.6,2.8v7.7h-3.8v-14h3.6v1.9h0.1c1-1.5,2.4-2.3,4.2-2.3
			c1,0,1.8,0.2,2.5,0.6c0.7,0.4,1.2,1,1.5,1.7C231.6,12.7,232.2,12.2,232.9,11.8z"/>
		<path class="st2" d="M256.6,22.3c-0.5,1.1-1.1,2-2,2.6c-0.9,0.7-2,1-3.2,1c-0.8,0-1.6-0.2-2.3-0.6c-0.7-0.4-1.3-0.9-1.7-1.6h-0.1
			v6.6h-3.8V11.6h3.7v1.8h0c0.9-1.4,2.3-2.2,4-2.2c1.3,0,2.4,0.3,3.3,1s1.6,1.6,2.1,2.7s0.7,2.4,0.7,3.8
			C257.3,20,257.1,21.2,256.6,22.3z M248,21.8c0.5,0.8,1.3,1.2,2.4,1.2c1.1,0,1.8-0.4,2.4-1.2c0.5-0.8,0.8-1.9,0.8-3.2
			c0-0.8-0.1-1.5-0.3-2.2c-0.2-0.7-0.5-1.2-1-1.7c-0.5-0.4-1.1-0.6-1.8-0.6c-1,0-1.8,0.4-2.3,1.2c-0.5,0.8-0.8,1.9-0.8,3.3
			C247.2,19.9,247.4,20.9,248,21.8z"/>
		<path class="st2" d="M264,8.5c-0.2,0.3-0.5,0.6-0.8,0.8c-0.3,0.2-0.7,0.3-1.2,0.3s-0.8-0.1-1.2-0.3c-0.3-0.2-0.6-0.4-0.8-0.8
			c-0.2-0.3-0.3-0.7-0.3-1.1s0.1-0.8,0.3-1.1s0.5-0.6,0.8-0.8c0.3-0.2,0.7-0.3,1.2-0.3s0.8,0.1,1.2,0.3c0.3,0.2,0.6,0.4,0.8,0.8
			s0.3,0.7,0.3,1.1S264.2,8.2,264,8.5z M264,11.6v14h-3.8v-14H264z"/>
		<path class="st2" d="M280.1,22.4c-0.6,1.1-1.4,2-2.5,2.6s-2.3,0.9-3.7,0.9c-1.4,0-2.7-0.3-3.7-0.9s-1.9-1.5-2.5-2.6
			c-0.6-1.1-0.9-2.4-0.9-3.8c0-1.5,0.3-2.8,0.9-3.9c0.6-1.1,1.4-2,2.5-2.6c1.1-0.6,2.3-0.9,3.7-0.9s2.7,0.3,3.7,0.9
			c1.1,0.6,1.9,1.5,2.5,2.6c0.6,1.1,0.9,2.4,0.9,3.9C281,20,280.7,21.3,280.1,22.4z M276.4,21.8c0.5-0.8,0.8-1.9,0.8-3.3
			c0-1.3-0.3-2.4-0.8-3.2c-0.5-0.8-1.3-1.3-2.5-1.3c-1,0-1.8,0.4-2.3,1.2c-0.6,0.8-0.8,1.9-0.8,3.3s0.3,2.5,0.8,3.3
			c0.5,0.8,1.3,1.1,2.4,1.1C275,23,275.8,22.6,276.4,21.8z"/>
		<path class="st2" d="M296.7,25.5h-3.8v-7.7c0-1.3-0.2-2.2-0.6-2.8c-0.4-0.6-1-0.8-1.9-0.8c-0.9,0-1.5,0.3-2,0.9
			c-0.5,0.6-0.7,1.5-0.7,2.8v7.7h-3.8v-14h3.7v1.9h0.1c0.4-0.7,1-1.3,1.8-1.7s1.5-0.6,2.3-0.6c1.7,0,2.9,0.5,3.8,1.4
			c0.8,0.9,1.2,2.3,1.2,4.2V25.5z"/>
	</g>
	<g id="Path_2756">
		<path class="st3" d="M115.9,12.8c-0.5-1.6-1.4-3.1-2.5-4.4c-1.2-1.4-2.8-2.5-4.5-3.2c-2.2-0.8-4.5-1.3-6.8-1.2h-8v2
			c0.9,0.6,1.7,1.3,2.4,2.1c0.1,0.1,0.4,0.4,0.7,0.9c1.5,0,2.1,0,2.1,0h4.3c0.7,0,1.5,0.1,2.2,0.3c0.9,0.3,1.8,0.7,2.5,1.2
			c0.9,0.7,1.6,1.5,2.1,2.5c0.6,1.3,0.9,2.8,0.9,4.2c0,1.2-0.2,2.4-0.6,3.5c-0.4,1-1,1.9-1.8,2.5c-0.8,0.7-1.8,1.2-2.8,1.5
			c-1.2,0.4-2.4,0.5-3.6,0.5h-5c-0.5,0.7-1.1,1.3-1.7,1.9c-0.5,0.5-1.1,0.9-1.7,1.3v1.9h9.3c1.8,0,3.5-0.3,5.1-0.9
			c1.6-0.6,3-1.4,4.3-2.6c1.2-1.1,2.2-2.5,2.9-4.1c0.7-1.7,1.1-3.5,1.1-5.3C116.6,16,116.4,14.4,115.9,12.8z"/>
	</g>
	<g id="Path_2757">
		<path class="st4" d="M134.2,12.8c-0.5-1.6-1.4-3.1-2.5-4.4c-1.2-1.4-2.8-2.5-4.5-3.2c-2.2-0.8-4.5-1.3-6.8-1.2h-8v2
			c0.9,0.6,1.7,1.3,2.4,2.1c0.1,0.1,0.4,0.4,0.7,0.9c1.5,0,2.1,0,2.1,0h4.3c0.7,0,1.5,0.1,2.2,0.3c0.9,0.3,1.8,0.7,2.5,1.2
			c0.9,0.7,1.6,1.5,2.1,2.5c0.6,1.3,0.9,2.8,0.8,4.2c0,1.2-0.2,2.4-0.6,3.5c-0.4,1-1,1.9-1.8,2.5c-0.8,0.7-1.8,1.2-2.8,1.5
			c-1.2,0.4-2.4,0.5-3.6,0.5h-5c-0.5,0.7-1.1,1.3-1.7,1.9c-0.5,0.5-1.1,0.9-1.7,1.3v1.9h9.3c1.8,0,3.5-0.3,5.1-0.9
			c1.6-0.6,3-1.4,4.3-2.6c1.2-1.1,2.2-2.5,2.9-4.1c0.7-1.7,1.1-3.5,1.1-5.3C135,16,134.7,14.4,134.2,12.8z"/>
	</g>
	<g id="Path_2758">
		<path class="st5" d="M152,12.8c-0.5-1.6-1.4-3.1-2.5-4.4c-1.2-1.4-2.8-2.5-4.5-3.2c-2.2-0.8-4.5-1.3-6.8-1.2h-8v2
			c0.9,0.6,1.7,1.3,2.4,2.1c0.1,0.1,0.4,0.4,0.7,0.9c1.5,0,2.1,0,2.1,0h4.3c0.7,0,1.5,0.1,2.2,0.3c0.9,0.3,1.8,0.7,2.5,1.2
			c0.9,0.7,1.6,1.5,2.1,2.5c0.6,1.3,0.9,2.8,0.8,4.2c0,1.2-0.2,2.4-0.6,3.5c-0.4,1-1,1.9-1.8,2.5c-0.8,0.7-1.8,1.2-2.8,1.5
			c-1.2,0.4-2.4,0.5-3.6,0.5h-5c-0.5,0.7-1.1,1.3-1.7,1.9c-0.5,0.5-1.1,0.9-1.7,1.3v1.9h9.3c1.8,0,3.5-0.3,5.1-0.9
			c1.6-0.6,3-1.4,4.3-2.6c1.2-1.1,2.2-2.5,2.9-4.1c0.7-1.7,1.1-3.5,1.1-5.3C152.8,16,152.5,14.4,152,12.8z"/>
	</g>
	<g id="Path_2759">
		<path class="st6" d="M131.6,9"/>
	</g>
	<g id="Path_2760">
		<path class="st6" d="M131.9,25.5"/>
	</g>
	<g id="Group_29" transform="translate(3741 -770.569)">
		<g id="Path_2761">
			<path class="st7" d="M-3658.9,800.3c-1.2-0.5-2.2-1.4-2.9-2.5c-0.8-1.2-1.2-2.5-1.2-3.9h5.1c0.1,0.5,0.2,1,0.5,1.4
				c0.2,0.4,0.6,0.7,0.9,0.9c0.4,0.2,0.9,0.3,1.3,0.3c0.8,0.1,1.6-0.2,2.2-0.8c0.5-0.6,0.8-1.4,0.8-2.2v-0.6
				c0.1-0.8-0.2-1.6-0.6-2.3c-0.4-0.5-1.1-0.8-1.8-0.8h-2.2v-4.7h2.2c0.6,0,1.1-0.2,1.4-0.7c0.4-0.6,0.6-1.3,0.5-2v-0.4
				c0-0.7-0.2-1.3-0.6-1.9c-0.4-0.4-1-0.7-1.6-0.7c-0.4,0-0.8,0.1-1.2,0.3c-0.4,0.2-0.7,0.6-0.9,1c-0.3,0.5-0.5,1-0.5,1.6h-5.1
				c0.1-1.5,0.5-2.9,1.3-4.1c0.7-1.1,1.6-2,2.8-2.6c1.2-0.6,2.5-0.9,3.8-0.9c1.9-0.1,3.9,0.5,5.4,1.8c1.3,1.3,2,3.1,1.9,5v0.8
				c0,1.1-0.3,2.2-0.9,3.2c-0.6,0.9-1.5,1.6-2.6,2c1.2,0.2,2.2,1,2.9,2c0.7,1.2,1.1,2.5,1,3.9v0.8c0,1.4-0.3,2.7-0.9,3.9
				c-0.6,1.1-1.5,1.9-2.6,2.5c-1.3,0.6-2.7,0.9-4.1,0.8C-3656.1,801.1-3657.5,800.9-3658.9,800.3z"/>
		</g>
	</g>
	<g class="st1">
		<path class="st2" d="M86.8,48.7c0.7,0.4,1.3,1,1.7,1.7c0.4,0.8,0.6,1.7,0.6,2.8c0,1.1-0.2,2.1-0.6,2.8c-0.4,0.8-0.9,1.4-1.6,1.8
			s-1.6,0.6-2.6,0.6h-4.1V48.1h4.1C85.3,48.1,86.1,48.3,86.8,48.7z M86.4,56.1c0.5-0.6,0.8-1.4,0.8-2.7c0-0.9-0.1-1.6-0.4-2.1
			c-0.3-0.5-0.6-0.9-1.1-1.2s-1.1-0.4-1.9-0.4H82v7.2h2C85,56.9,85.8,56.6,86.4,56.1z"/>
		<path class="st2" d="M97.4,48.1l3.9,10.4h-1.9l-0.9-2.6h-4.1l-1,2.6h-1.9l4-10.4H97.4z M96.4,50.2l-1.6,4.3H98L96.4,50.2
			L96.4,50.2z"/>
		<path class="st2" d="M110.8,48.1v1.6h-3.3v8.8h-1.9v-8.8h-3.3v-1.6H110.8z"/>
		<path class="st2" d="M117.5,48.1l3.9,10.4h-1.9l-0.9-2.6h-4.1l-1,2.6h-1.9l4-10.4H117.5z M116.5,50.2l-1.6,4.3h3.2L116.5,50.2
			L116.5,50.2z"/>
	</g>
	<g class="st1">
		<path class="st4" d="M135.2,54.5c-0.2,0.4-0.5,0.7-0.9,1c-0.4,0.2-0.8,0.4-1.3,0.4c-0.5,0-0.9-0.1-1.3-0.4c-0.4-0.2-0.7-0.6-0.9-1
			s-0.3-0.9-0.3-1.4c0-0.5,0.1-0.9,0.3-1.3c0.2-0.4,0.5-0.7,0.9-1s0.8-0.4,1.3-0.4c0.5,0,0.9,0.1,1.3,0.4c0.4,0.2,0.7,0.6,0.9,1
			s0.4,0.9,0.4,1.3C135.5,53.6,135.4,54.1,135.2,54.5z"/>
	</g>
	<g class="st1">
		<path class="st2" d="M152.2,48.7c0.7,0.4,1.3,1,1.7,1.7c0.4,0.8,0.6,1.7,0.6,2.8c0,1.1-0.2,2.1-0.6,2.8c-0.4,0.8-0.9,1.4-1.6,1.8
			s-1.6,0.6-2.6,0.6h-4.1V48.1h4.1C150.6,48.1,151.5,48.3,152.2,48.7z M151.7,56.1c0.5-0.6,0.8-1.4,0.8-2.7c0-0.9-0.1-1.6-0.4-2.1
			c-0.3-0.5-0.6-0.9-1.1-1.2s-1.1-0.4-1.9-0.4h-1.7v7.2h2C150.4,56.9,151.2,56.6,151.7,56.1z"/>
		<path class="st2" d="M159.8,48.1v10.4H158V48.1H159.8z"/>
		<path class="st2" d="M170.4,48.3c0.6,0.3,1.2,0.7,1.6,1.2s0.7,1.1,0.8,1.8h-1.8c-0.1-0.3-0.2-0.7-0.5-0.9
			c-0.2-0.3-0.5-0.5-0.9-0.6c-0.4-0.2-0.8-0.2-1.2-0.2c-0.7,0-1.3,0.2-1.8,0.5c-0.5,0.3-0.8,0.8-1.1,1.4c-0.2,0.6-0.3,1.2-0.3,1.9
			c0,0.7,0.1,1.3,0.3,1.9c0.2,0.6,0.6,1,1.1,1.4c0.5,0.4,1.1,0.5,1.8,0.5c0.8,0,1.5-0.2,2-0.7s0.8-1.1,0.8-2h-2.6v-1.4h4.3v1
			c0,1.1-0.2,2-0.7,2.7c-0.4,0.7-1,1.2-1.7,1.5c-0.7,0.3-1.4,0.5-2.2,0.5c-1,0-1.9-0.2-2.6-0.7s-1.3-1.1-1.7-1.9
			c-0.4-0.8-0.6-1.7-0.6-2.7c0-1,0.2-1.9,0.6-2.8c0.4-0.8,1-1.5,1.7-2c0.8-0.5,1.7-0.7,2.7-0.7C169.1,47.9,169.8,48,170.4,48.3z"/>
		<path class="st2" d="M178.3,48.1v10.4h-1.9V48.1H178.3z"/>
		<path class="st2" d="M189.8,48.1v1.6h-3.3v8.8h-1.9v-8.8h-3.3v-1.6H189.8z"/>
		<path class="st2" d="M196.5,48.1l3.9,10.4h-1.9l-0.9-2.6h-4.1l-1,2.6h-1.9l4-10.4H196.5z M195.5,50.2l-1.6,4.3h3.2L195.5,50.2
			L195.5,50.2z"/>
		<path class="st2" d="M205.2,48.1v8.8h5.3v1.6h-7.2V48.1H205.2z"/>
	</g>
	<g class="st1">
		<path class="st4" d="M224.5,54.5c-0.2,0.4-0.5,0.7-0.9,1c-0.4,0.2-0.8,0.4-1.3,0.4c-0.5,0-0.9-0.1-1.3-0.4c-0.4-0.2-0.7-0.6-0.9-1
			c-0.2-0.4-0.3-0.9-0.3-1.4c0-0.5,0.1-0.9,0.3-1.3c0.2-0.4,0.5-0.7,0.9-1c0.4-0.2,0.8-0.4,1.3-0.4c0.5,0,0.9,0.1,1.3,0.4
			c0.4,0.2,0.7,0.6,0.9,1c0.2,0.4,0.4,0.9,0.4,1.3C224.8,53.6,224.7,54.1,224.5,54.5z"/>
	</g>
	<g class="st1">
		<path class="st2" d="M241.5,48.7c0.7,0.4,1.3,1,1.7,1.7c0.4,0.8,0.6,1.7,0.6,2.8c0,1.1-0.2,2.1-0.6,2.8c-0.4,0.8-0.9,1.4-1.6,1.8
			s-1.6,0.6-2.6,0.6h-4.1V48.1h4.1C239.9,48.1,240.8,48.3,241.5,48.7z M241,56.1c0.6-0.6,0.8-1.4,0.8-2.7c0-0.9-0.1-1.6-0.4-2.1
			c-0.3-0.5-0.6-0.9-1.1-1.2s-1.1-0.4-1.9-0.4h-1.7v7.2h2C239.7,56.9,240.5,56.6,241,56.1z"/>
		<path class="st2" d="M254.8,48.1v1.6h-5.7v2.7h5.3v1.5h-5.3v3h5.8v1.6h-7.7V48.1H254.8z"/>
		<path class="st2" d="M264.1,50.9c0-0.5-0.2-0.9-0.6-1.1c-0.4-0.2-0.9-0.4-1.6-0.4c-0.6,0-1.1,0.1-1.4,0.4c-0.4,0.2-0.6,0.6-0.6,1
			c0,0.3,0,0.5,0.1,0.6c0.1,0.2,0.2,0.3,0.5,0.4c0.2,0.1,0.5,0.2,0.9,0.3l1.7,0.4c0.7,0.2,1.2,0.4,1.7,0.6c0.5,0.2,0.8,0.5,1.1,0.9
			c0.3,0.4,0.4,0.9,0.4,1.5c0,0.6-0.1,1.1-0.4,1.6c-0.3,0.5-0.8,0.9-1.4,1.2s-1.4,0.4-2.4,0.4c-0.8,0-1.5-0.1-2.2-0.3
			c-0.7-0.2-1.2-0.6-1.6-1.1c-0.4-0.5-0.6-1.1-0.6-1.7v-0.1h1.8v0c0,0.6,0.2,1,0.7,1.3c0.5,0.3,1.1,0.4,1.9,0.4
			c0.7,0,1.2-0.1,1.6-0.4c0.4-0.2,0.7-0.6,0.7-1.1c0-0.4-0.1-0.7-0.4-0.9c-0.3-0.2-0.8-0.4-1.4-0.6l-2.1-0.5c-0.8-0.2-1.4-0.5-1.8-1
			s-0.6-1-0.6-1.7c0-0.6,0.2-1.1,0.5-1.6c0.3-0.5,0.8-0.8,1.4-1.1c0.6-0.3,1.3-0.4,2-0.4c0.8,0,1.4,0.1,2,0.3c0.6,0.2,1.1,0.6,1.4,1
			c0.4,0.4,0.5,1,0.5,1.6H264.1z"/>
		<path class="st2" d="M271.5,48.1v10.4h-1.9V48.1H271.5z"/>
		<path class="st2" d="M282.1,48.3c0.6,0.3,1.2,0.7,1.6,1.2s0.7,1.1,0.8,1.8h-1.8c-0.1-0.3-0.2-0.7-0.5-0.9
			c-0.2-0.3-0.5-0.5-0.9-0.6c-0.4-0.2-0.8-0.2-1.2-0.2c-0.7,0-1.3,0.2-1.8,0.5s-0.8,0.8-1.1,1.4c-0.2,0.6-0.3,1.2-0.3,1.9
			c0,0.7,0.1,1.3,0.3,1.9c0.2,0.6,0.6,1,1.1,1.4c0.5,0.4,1.1,0.5,1.8,0.5c0.8,0,1.5-0.2,2-0.7s0.8-1.1,0.8-2h-2.6v-1.4h4.3v1
			c0,1.1-0.2,2-0.7,2.7c-0.4,0.7-1,1.2-1.7,1.5c-0.7,0.3-1.4,0.5-2.2,0.5c-1,0-1.9-0.2-2.6-0.7s-1.3-1.1-1.7-1.9
			c-0.4-0.8-0.6-1.7-0.6-2.7c0-1,0.2-1.9,0.6-2.8c0.4-0.8,1-1.5,1.7-2c0.8-0.5,1.7-0.7,2.7-0.7C280.7,47.9,281.4,48,282.1,48.3z"/>
		<path class="st2" d="M289.9,48.1l4.9,7.5h0v-7.5h1.8v10.4h-1.9l-4.9-7.5h0v7.5H288V48.1H289.9z"/>
	</g>
	<g id="Line_22">
		<path class="st2" d="M296.5,38.8h-218c-0.3,0-0.5-0.2-0.5-0.5s0.2-0.5,0.5-0.5h218c0.3,0,0.5,0.2,0.5,0.5S296.8,38.8,296.5,38.8z"
			/>
	</g>
</g>
</svg>
