<svg version="1.2" baseProfile="tiny-ps" xmlns="http://www.w3.org/2000/svg" viewBox="0 0 448 512" width="448" height="512">
	<title>arrow-right-solid</title>
	<style>
		tspan { white-space:pre }
		.shp0 { fill: #ffffff } 
	</style>
	<path id="Layer" class="shp0" d="M190.5 66.9L212.7 44.7C222.1 35.3 237.3 35.3 246.6 44.7L441 239C450.4 248.4 450.4 263.6 441 272.9L246.6 467.3C237.2 476.7 222 476.7 212.7 467.3L190.5 445.1C181 435.6 181.2 420.1 190.9 410.8L311.4 296L24 296C10.7 296 0 285.3 0 272L0 240C0 226.7 10.7 216 24 216L311.4 216L190.9 101.2C181.1 91.9 180.9 76.4 190.5 66.9Z" />
</svg>