<svg xmlns="http://www.w3.org/2000/svg" width="542.802" height="26.057" viewBox="0 0 542.802 26.057"><defs><style>.a{fill:#04023e;}.a,.b{opacity:0.75;}.b,.d,.e{fill:#fff;}.c{fill:#b5b5b5;font-size:12px;font-family:JioType-Medium, JioType;font-weight:500;}.d{font-family:JioType-MediumItalic, JioType;font-style:italic;text-decoration:underline;}</style></defs><g transform="translate(-568.097 -635)"><g data-type="innerShadowGroup"><path class="a" d="M665.926,890.559h-542.8l1.96-.7a165.949,165.949,0,0,0,38.332-19.516c4.755-3.274,9.829-5.841,14.994-5.841H610.64c5.165,0,10.238,2.567,14.994,5.841a165.948,165.948,0,0,0,38.332,19.516Z" transform="translate(444.973 -229.502)"/><path class="b" d="M665.926,890.559h-542.8l1.96-.7a165.949,165.949,0,0,0,38.332-19.516c4.755-3.274,9.829-5.841,14.994-5.841H610.64c5.165,0,10.238,2.567,14.994,5.841a165.948,165.948,0,0,0,38.332,19.516Z" transform="translate(444.973 -229.502)"/></g><text class="c" transform="translate(686 652)"><tspan x="0" y="0">New to 3D Champions? </tspan><tspan class="d" y="0">Click here</tspan><tspan y="0" xml:space="preserve"> to know the basics.</tspan><tspan class="e" y="0"> </tspan></text></g></svg>