<svg version="1.2" baseProfile="tiny-ps" xmlns="http://www.w3.org/2000/svg" viewBox="0 0 180 54" width="180" height="54">
	<title>Artboard 5-svg</title>
	<style>
		tspan { white-space:pre }
		.shp0 { fill: #d42028 } 
		.shp1 { fill: #ffffff } 
	</style>
	<g id="Group_17">
		<path id="Path_2751" class="shp0" d="M36.85 44.59C31.25 46.11 25.26 44.93 20.66 41.4C16.06 37.88 13.36 32.4 13.37 26.6C13.38 20.81 16.09 15.34 20.71 11.83C25.32 8.32 31.31 7.16 36.9 8.69C37.3 8.32 37.72 7.96 38.15 7.62C38.58 7.27 39.02 6.94 39.47 6.63C39.92 6.31 40.39 6.01 40.86 5.73C41.33 5.44 41.81 5.17 42.3 4.92C37.36 1.45 31.39 -0.25 25.37 0.11C19.34 0.48 13.62 2.88 9.13 6.92C4.65 10.96 1.67 16.4 0.68 22.36C-0.3 28.31 0.76 34.43 3.71 39.7L0 53.55L13.85 49.84C16.04 51.07 18.39 51.99 20.83 52.56C23.27 53.14 25.78 53.36 28.29 53.24C30.79 53.11 33.27 52.63 35.64 51.81C38.01 50.98 40.25 49.83 42.3 48.38C41.81 48.13 41.32 47.86 40.84 47.58C40.37 47.29 39.9 46.99 39.44 46.67C38.99 46.35 38.54 46.02 38.11 45.67C37.68 45.33 37.25 44.96 36.85 44.59L36.85 44.59Z" />
		<path id="Path_2752" fill-rule="evenodd" class="shp0" d="M63.28 44.31C54.47 49.26 43.36 46.96 37.25 38.91C31.14 30.86 31.91 19.53 39.06 12.38C46.21 5.24 57.53 4.46 65.58 10.57C73.63 16.68 75.94 27.8 70.98 36.6L73.8 47.12L63.28 44.31ZM49.5 40.81C51.35 40.81 53.19 40.44 54.9 39.73C56.62 39.02 58.17 37.98 59.49 36.67C60.8 35.36 61.84 33.81 62.55 32.1C63.26 30.38 63.63 28.55 63.63 26.69C63.63 20.98 60.19 15.83 54.91 13.64C49.63 11.45 43.55 12.66 39.51 16.7C35.47 20.74 34.26 26.82 36.45 32.1C38.63 37.38 43.78 40.82 49.5 40.82L49.5 40.81Z" />
		<path id="Path_2753" class="shp0" d="M58.95 26.63C58.95 25.9 58.51 25.25 57.84 24.97C57.17 24.69 56.39 24.84 55.88 25.36C55.36 25.87 55.21 26.65 55.49 27.32C55.77 27.99 56.42 28.43 57.15 28.43C57.39 28.43 57.62 28.38 57.84 28.29C58.06 28.2 58.26 28.07 58.42 27.9C58.59 27.74 58.72 27.54 58.81 27.32C58.9 27.1 58.95 26.87 58.95 26.63Z" />
		<path id="Path_2754" class="shp0" d="M44.71 26.63C44.71 25.5 44.03 24.48 42.98 24.05C41.94 23.61 40.73 23.85 39.93 24.65C39.13 25.45 38.89 26.66 39.33 27.7C39.76 28.75 40.78 29.43 41.91 29.43C42.28 29.43 42.64 29.36 42.98 29.22C43.32 29.08 43.63 28.87 43.89 28.61C44.15 28.35 44.36 28.04 44.5 27.7C44.64 27.36 44.71 27 44.71 26.63L44.71 26.63Z" />
		<path id="Path_2755" class="shp0" d="M27.97 26.63C27.97 24.92 26.94 23.38 25.36 22.72C23.78 22.07 21.96 22.43 20.75 23.64C19.54 24.85 19.18 26.67 19.83 28.25C20.49 29.83 22.03 30.86 23.74 30.86L23.74 30.86C24.3 30.86 24.85 30.75 25.36 30.54C25.87 30.33 26.34 30.01 26.73 29.62C27.13 29.23 27.44 28.76 27.65 28.25C27.86 27.74 27.97 27.19 27.97 26.63L27.97 26.63Z" />
	</g>
	<g id="Layer">
		<path id="Layer" class="shp1" d="M87.51 27.44L83.39 27.44L83.39 31.28L81.95 31.28L81.95 22.5L83.39 22.5L83.39 26.26L87.51 26.26L87.51 22.5L88.94 22.5L88.94 31.27L87.51 31.27L87.51 27.44Z" />
		<path id="Layer" fill-rule="evenodd" class="shp1" d="M93.84 31.38C93.37 31.4 92.9 31.31 92.47 31.13C92.03 30.96 91.64 30.69 91.31 30.35C90.98 30.01 90.73 29.61 90.56 29.17C90.4 28.72 90.33 28.25 90.36 27.78C90.31 26.81 90.66 25.86 91.33 25.16C92 24.46 92.93 24.06 93.9 24.06C94.87 24.06 95.8 24.46 96.47 25.16C97.14 25.86 97.49 26.81 97.44 27.78C97.46 28.26 97.38 28.74 97.2 29.18C97.03 29.63 96.77 30.03 96.43 30.37C96.09 30.71 95.69 30.97 95.24 31.14C94.8 31.32 94.32 31.4 93.84 31.38ZM94.71 29.96C94.98 29.83 95.22 29.66 95.42 29.44C95.62 29.21 95.78 28.95 95.87 28.67C95.96 28.39 96 28.09 95.97 27.79C96 27.5 95.97 27.2 95.88 26.92C95.79 26.64 95.64 26.38 95.45 26.16C95.25 25.94 95.01 25.76 94.74 25.64C94.47 25.52 94.17 25.46 93.88 25.46C93.58 25.46 93.29 25.51 93.02 25.63C92.75 25.75 92.5 25.93 92.31 26.15C92.11 26.37 91.96 26.63 91.87 26.92C91.79 27.2 91.76 27.5 91.8 27.79C91.8 29.37 92.75 30.14 93.84 30.14C94.14 30.14 94.44 30.08 94.71 29.96Z" />
		<path id="Layer" class="shp1" d="M98.05 24.3L99.51 24.3L100.96 29.88L102.44 24.3L103.93 24.3L105.34 29.86L106.78 24.3L108.2 24.3L106.04 31.25L104.53 31.25L103.13 26.12L101.7 31.28L100.19 31.28L98.05 24.3Z" />
		<path id="Layer" class="shp1" d="M115.46 24.21C115.82 24.18 116.18 24.21 116.53 24.31C116.87 24.4 117.2 24.56 117.49 24.77C117.78 24.98 118.04 25.24 118.24 25.54C118.44 25.84 118.58 26.17 118.66 26.52L117.12 26.52C117.06 26.35 116.97 26.2 116.87 26.05C116.76 25.91 116.62 25.79 116.48 25.69C116.33 25.59 116.16 25.52 115.99 25.47C115.82 25.43 115.64 25.41 115.46 25.43C114.3 25.43 113.53 26.28 113.53 27.79C113.53 29.3 114.3 30.18 115.46 30.18C115.64 30.19 115.82 30.18 115.99 30.13C116.17 30.09 116.33 30.02 116.48 29.92C116.63 29.82 116.76 29.7 116.87 29.55C116.98 29.41 117.06 29.25 117.12 29.08L118.66 29.08C118.57 29.42 118.42 29.75 118.22 30.04C118.01 30.34 117.76 30.59 117.47 30.8C117.18 31.01 116.86 31.17 116.52 31.27C116.17 31.36 115.82 31.4 115.46 31.38C114.99 31.4 114.53 31.31 114.1 31.13C113.66 30.95 113.28 30.68 112.95 30.34C112.63 30 112.39 29.6 112.23 29.16C112.08 28.72 112.02 28.25 112.06 27.78C112.02 27.32 112.09 26.85 112.24 26.42C112.4 25.98 112.64 25.58 112.97 25.24C113.29 24.9 113.67 24.64 114.1 24.46C114.53 24.28 115 24.2 115.46 24.21Z" />
		<path id="Layer" fill-rule="evenodd" class="shp1" d="M123.58 24.27C123.81 24.32 124.03 24.39 124.23 24.49C124.44 24.59 124.64 24.71 124.82 24.85C125 24.99 125.16 25.15 125.31 25.34L125.31 24.3L126.76 24.3L126.76 31.25L125.31 31.25L125.31 30.24C125.16 30.42 125 30.59 124.82 30.73C124.63 30.88 124.43 31 124.22 31.1C124.01 31.2 123.79 31.27 123.56 31.32C123.33 31.37 123.1 31.39 122.87 31.38C122.42 31.37 121.97 31.26 121.56 31.07C121.15 30.88 120.78 30.61 120.47 30.28C120.17 29.94 119.94 29.55 119.79 29.12C119.64 28.69 119.59 28.23 119.62 27.78C119.58 27.33 119.64 26.87 119.79 26.44C119.93 26.01 120.17 25.62 120.48 25.28C120.78 24.95 121.16 24.68 121.57 24.49C121.99 24.31 122.44 24.21 122.9 24.21C123.13 24.2 123.36 24.22 123.58 24.27ZM122.35 25.65C122.08 25.77 121.84 25.94 121.65 26.15C121.45 26.37 121.3 26.63 121.2 26.9C121.11 27.18 121.07 27.47 121.1 27.76C121.07 28.06 121.11 28.36 121.2 28.64C121.29 28.92 121.44 29.18 121.64 29.4C121.84 29.63 122.08 29.81 122.35 29.93C122.61 30.06 122.9 30.13 123.2 30.14C123.5 30.13 123.79 30.07 124.06 29.94C124.33 29.82 124.57 29.64 124.76 29.42C124.96 29.2 125.11 28.94 125.2 28.66C125.3 28.38 125.33 28.09 125.31 27.79C125.33 27.5 125.29 27.2 125.2 26.93C125.1 26.65 124.95 26.39 124.76 26.17C124.56 25.95 124.32 25.78 124.05 25.66C123.78 25.53 123.5 25.47 123.2 25.46C122.91 25.46 122.62 25.53 122.35 25.65Z" />
		<path id="Layer" class="shp1" d="M133.57 27.39C133.57 26.12 132.88 25.46 131.83 25.46C131.58 25.45 131.33 25.49 131.1 25.58C130.87 25.68 130.67 25.82 130.5 26.01C130.33 26.19 130.21 26.41 130.13 26.65C130.06 26.89 130.04 27.14 130.08 27.39L130.08 31.28L128.64 31.28L128.64 24.3L130.08 24.3L130.08 25.09C130.21 24.95 130.35 24.82 130.51 24.7C130.67 24.59 130.84 24.49 131.01 24.42C131.19 24.34 131.38 24.28 131.57 24.24C131.76 24.2 131.95 24.19 132.15 24.19C132.54 24.17 132.93 24.23 133.3 24.37C133.66 24.51 133.99 24.74 134.26 25.02C134.54 25.3 134.74 25.64 134.87 26.01C135 26.39 135.04 26.78 135 27.17L135 31.28L133.58 31.28L133.57 27.39Z" />
		<path id="Layer" class="shp1" d="M140.09 22.5L141.53 22.5L141.53 31.27L140.09 31.27L140.09 22.5Z" />
		<path id="Layer" class="shp1" d="M146.7 21.94L148.14 21.94L148.14 25.14C148.27 24.99 148.43 24.85 148.59 24.73C148.75 24.62 148.93 24.52 149.12 24.44C149.3 24.36 149.5 24.31 149.7 24.27C149.9 24.24 150.1 24.23 150.3 24.24C150.68 24.23 151.06 24.3 151.41 24.45C151.77 24.6 152.08 24.82 152.34 25.1C152.6 25.38 152.8 25.71 152.92 26.07C153.05 26.43 153.09 26.82 153.05 27.2L153.05 31.3L151.63 31.3L151.63 27.39C151.63 26.12 150.94 25.46 149.89 25.46C149.65 25.45 149.4 25.49 149.17 25.58C148.94 25.68 148.73 25.82 148.56 26.01C148.39 26.19 148.27 26.41 148.2 26.65C148.12 26.89 148.1 27.14 148.14 27.39L148.14 31.28L146.7 31.28L146.7 21.94Z" />
		<path id="Layer" fill-rule="evenodd" class="shp1" d="M157.86 31.38C157.39 31.4 156.92 31.31 156.48 31.14C156.05 30.96 155.65 30.69 155.33 30.35C155 30.01 154.75 29.61 154.59 29.17C154.43 28.72 154.36 28.25 154.4 27.78C154.36 27.31 154.42 26.84 154.58 26.39C154.74 25.95 154.99 25.54 155.31 25.2C155.64 24.86 156.04 24.59 156.48 24.42C156.92 24.24 157.39 24.16 157.86 24.18C158.31 24.16 158.76 24.24 159.19 24.4C159.61 24.57 159.99 24.82 160.31 25.14C160.62 25.47 160.87 25.85 161.03 26.28C161.19 26.7 161.26 27.15 161.23 27.6C161.24 27.66 161.24 27.72 161.23 27.78C161.23 27.84 161.23 27.9 161.23 27.95C161.22 28.01 161.22 28.07 161.21 28.13C161.21 28.19 161.2 28.25 161.19 28.31L155.88 28.3C155.89 28.56 155.95 28.8 156.05 29.03C156.15 29.26 156.3 29.47 156.49 29.64C156.67 29.81 156.89 29.94 157.12 30.03C157.36 30.12 157.61 30.16 157.86 30.15C158.03 30.16 158.2 30.15 158.36 30.11C158.53 30.07 158.68 30 158.83 29.92C158.98 29.83 159.11 29.72 159.22 29.6C159.33 29.47 159.43 29.33 159.5 29.18L161.05 29.18C160.94 29.51 160.78 29.82 160.57 30.1C160.37 30.38 160.12 30.63 159.83 30.82C159.54 31.02 159.23 31.17 158.89 31.27C158.56 31.36 158.21 31.4 157.86 31.38ZM159.74 27.17C159.73 26.93 159.68 26.69 159.58 26.46C159.47 26.24 159.33 26.04 159.14 25.88C158.96 25.72 158.75 25.59 158.52 25.51C158.29 25.44 158.04 25.41 157.8 25.43C157.56 25.42 157.32 25.47 157.1 25.55C156.88 25.64 156.68 25.76 156.5 25.92C156.32 26.08 156.18 26.28 156.08 26.49C155.97 26.7 155.91 26.93 155.89 27.17L159.74 27.17Z" />
		<path id="Layer" class="shp1" d="M162.65 21.94L164.08 21.94L164.08 31.28L162.65 31.28L162.65 21.94Z" />
		<path id="Layer" fill-rule="evenodd" class="shp1" d="M169.83 24.21C170.29 24.21 170.74 24.31 171.16 24.5C171.57 24.68 171.95 24.95 172.25 25.29C172.56 25.63 172.79 26.03 172.94 26.46C173.08 26.9 173.14 27.35 173.1 27.81C173.13 28.26 173.07 28.72 172.92 29.15C172.77 29.58 172.54 29.97 172.23 30.31C171.93 30.65 171.56 30.92 171.15 31.11C170.73 31.3 170.28 31.4 169.83 31.41C169.6 31.41 169.37 31.38 169.14 31.33C168.92 31.28 168.7 31.21 168.49 31.11C168.28 31.01 168.08 30.89 167.9 30.75C167.71 30.61 167.55 30.45 167.4 30.27L167.4 34.58L165.96 34.58L165.96 24.3L167.4 24.3L167.4 25.32C167.55 25.14 167.71 24.98 167.9 24.84C168.08 24.7 168.28 24.58 168.49 24.48C168.7 24.39 168.92 24.32 169.14 24.27C169.37 24.22 169.6 24.2 169.83 24.21ZM169.51 25.46C169.22 25.47 168.93 25.53 168.66 25.65C168.39 25.78 168.15 25.95 167.95 26.17C167.76 26.39 167.6 26.64 167.51 26.92C167.41 27.2 167.38 27.5 167.4 27.79C167.38 28.09 167.41 28.38 167.51 28.66C167.6 28.94 167.75 29.2 167.95 29.42C168.14 29.64 168.38 29.82 168.65 29.94C168.92 30.07 169.21 30.13 169.51 30.14C169.8 30.13 170.1 30.06 170.36 29.93C170.63 29.81 170.87 29.63 171.07 29.41C171.27 29.18 171.42 28.92 171.52 28.64C171.61 28.36 171.65 28.06 171.62 27.77C171.64 27.47 171.61 27.18 171.51 26.9C171.42 26.63 171.27 26.37 171.07 26.15C170.87 25.94 170.63 25.77 170.36 25.65C170.1 25.53 169.81 25.46 169.51 25.46Z" />
		<path id="Layer" class="shp1" d="M176.88 22.38C177.24 22.34 177.61 22.38 177.96 22.5C178.31 22.62 178.63 22.81 178.9 23.06C179.16 23.31 179.38 23.61 179.52 23.95C179.66 24.29 179.72 24.65 179.71 25.02C179.71 26.82 178.45 27.58 176.76 27.58L176.71 28.57L175.5 28.57L175.44 26.6L175.85 26.6C177.27 26.6 178.37 26.34 178.37 25.02C178.37 24.63 178.22 24.26 177.94 23.99C177.67 23.72 177.3 23.56 176.91 23.56C176.53 23.56 176.16 23.72 175.88 23.99C175.61 24.26 175.46 24.63 175.46 25.02L174.11 25.02C174.1 24.66 174.16 24.3 174.3 23.96C174.43 23.63 174.64 23.32 174.9 23.07C175.16 22.83 175.47 22.63 175.81 22.51C176.15 22.4 176.52 22.35 176.88 22.38L176.88 22.38ZM176.07 31.38C175.7 31.38 175.37 31.16 175.24 30.83C175.1 30.49 175.17 30.1 175.43 29.85C175.69 29.59 176.08 29.51 176.41 29.65C176.75 29.79 176.97 30.12 176.97 30.48C176.96 30.6 176.94 30.71 176.89 30.82C176.84 30.93 176.78 31.02 176.69 31.1C176.61 31.18 176.51 31.25 176.41 31.29C176.3 31.33 176.18 31.36 176.07 31.36L176.07 31.38Z" />
	</g>
</svg>