<svg xmlns="http://www.w3.org/2000/svg" width="201" height="59.504" viewBox="0 0 201 59.504"><defs><style>.a{fill:#bf0128;}.b{fill:#fff;font-size:14px;font-family:Poppins-Medium, Poppins;font-weight:500;}</style></defs><path class="a" d="M988.593,497.676a20.669,20.669,0,1,1,.082-39.889,27.178,27.178,0,0,1,6.043-4.181,29.6,29.6,0,0,0-42.945,38.64l-4.122,15.385,15.385-4.122a29.61,29.61,0,0,0,31.6-1.615A27.189,27.189,0,0,1,988.593,497.676Z" transform="translate(-947.65 -448.127)"/><path class="a" d="M1192.412,532.167l-3.131-11.687a22.475,22.475,0,1,0-8.556,8.556Zm-27-7.02a15.7,15.7,0,1,1,15.7-15.7A15.7,15.7,0,0,1,1165.408,525.147Z" transform="translate(-1110.412 -479.803)"/><path class="a" d="M1285.192,599.788a2,2,0,1,0-2,2A2,2,0,0,0,1285.192,599.788Z" transform="translate(-1219.695 -570.195)"/><path class="a" d="M1189.547,594.854a3.112,3.112,0,1,0-3.112,3.112A3.112,3.112,0,0,0,1189.547,594.854Z" transform="translate(-1139.866 -565.26)"/><path class="a" d="M1074.671,587.841a4.7,4.7,0,1,0-4.7,4.7A4.7,4.7,0,0,0,1074.671,587.841Z" transform="translate(-1043.587 -558.248)"/><text class="b" transform="translate(90 34.752)"><tspan x="0" y="0">How can I help?</tspan></text></svg>