<?xml version="1.0" encoding="utf-8"?>
<!-- Generator: Adobe Illustrator 25.4.1, SVG Export Plug-In . SVG Version: 6.00 Build 0)  -->
<svg version="1.1" id="Layer_1" xmlns="http://www.w3.org/2000/svg" xmlns:xlink="http://www.w3.org/1999/xlink" x="0px" y="0px"
	 viewBox="0 0 150 24" style="enable-background:new 0 0 150 24;" xml:space="preserve">
<style type="text/css">
	.st0{fill:#FFFFFF;}
	.st1{fill-rule:evenodd;clip-rule:evenodd;fill:#FFFFFF;}
	.st2{fill:#D7B46D;}
</style>
<g id="Layer_00000079471129066089364290000001384966065453958049_">
	<g id="Layer_00000180358793200657469600000004866343522208472738_">
		<path id="Layer" class="st0" d="M86.2,9c-0.1-0.3-0.2-0.5-0.4-0.8C85.6,8,85.4,7.8,85,7.7c-0.3-0.1-0.6-0.2-1-0.2
			c-0.6,0-1.1,0.1-1.5,0.4c-0.4,0.3-0.7,0.7-0.9,1.2c-0.2,0.5-0.3,1.1-0.3,1.8c0,0.7,0.1,1.2,0.3,1.8c0.2,0.5,0.5,0.9,0.9,1.2
			c0.4,0.3,0.9,0.4,1.5,0.4c0.6,0,1.1-0.2,1.5-0.5c0.4-0.3,0.6-0.8,0.7-1.4h2.3c-0.1,0.8-0.3,1.5-0.7,2c-0.4,0.6-0.9,1-1.6,1.4
			c-0.7,0.3-1.4,0.5-2.2,0.5c-1,0-1.9-0.2-2.7-0.7c-0.8-0.5-1.3-1.1-1.7-1.9C79.2,12.9,79,12,79,11c0-1,0.2-2,0.6-2.8
			c0.4-0.8,1-1.5,1.7-2C82.1,5.8,83,5.6,84,5.6c0.8,0,1.5,0.1,2.1,0.4c0.6,0.3,1.2,0.7,1.6,1.2s0.6,1.1,0.7,1.8H86.2L86.2,9z"/>
		<path id="Layer_00000048460194465777949220000017199651551777854909_" class="st0" d="M92.2,9.5L92.2,9.5c0.3-0.4,0.6-0.7,1-0.9
			c0.4-0.2,0.8-0.3,1.3-0.3c0.9,0,1.6,0.2,2,0.8c0.4,0.5,0.7,1.3,0.7,2.3v4.8H95v-4.2c0-0.7-0.1-1.2-0.3-1.5c-0.2-0.3-0.6-0.5-1-0.5
			c-0.5,0-0.9,0.2-1.1,0.5c-0.3,0.3-0.4,0.8-0.4,1.5v4.2h-2.1V5.4h2.1V9.5L92.2,9.5z"/>
		<path id="Layer_00000008840817488653185440000010413888679997935764_" class="st1" d="M103.6,11.1c0-0.5-0.1-0.9-0.3-1.1
			c-0.2-0.2-0.5-0.3-1-0.3c-0.4,0-0.7,0.1-0.9,0.2c-0.2,0.1-0.3,0.4-0.4,0.7h-2.1c0-0.8,0.4-1.3,1-1.7c0.6-0.4,1.5-0.6,2.5-0.6
			c1.1,0,2,0.3,2.5,0.7c0.5,0.5,0.8,1.3,0.8,2.3v4.9h-1.9l-0.1-1h0c-0.2,0.3-0.4,0.6-0.8,0.9c-0.4,0.2-0.9,0.3-1.5,0.3
			c-0.5,0-1-0.1-1.4-0.3c-0.4-0.2-0.7-0.5-0.9-0.8c-0.2-0.4-0.3-0.8-0.3-1.3c0-0.9,0.3-1.5,1-1.9c0.7-0.4,1.6-0.6,2.8-0.6h1.1
			L103.6,11.1L103.6,11.1z M102.7,12.6c-0.6,0-1.1,0.1-1.5,0.3c-0.3,0.2-0.5,0.4-0.5,0.9c0,0.3,0.1,0.6,0.3,0.8
			c0.2,0.2,0.5,0.3,0.9,0.3c0.3,0,0.6-0.1,0.8-0.2s0.4-0.3,0.6-0.6c0.1-0.3,0.2-0.5,0.2-0.9v-0.5H102.7z"/>
		<path id="Layer_00000017499171282342520690000007064745935397543056_" class="st0" d="M115,8.5c0.4-0.2,0.8-0.3,1.3-0.3
			c0.8,0,1.5,0.2,2,0.7c0.5,0.5,0.7,1.1,0.7,2v5.2h-2.1v-4.2c0-0.7-0.1-1.2-0.3-1.5c-0.2-0.3-0.5-0.5-0.9-0.5c-0.4,0-0.8,0.2-1,0.5
			c-0.2,0.3-0.4,0.8-0.4,1.5v4.2h-2.1v-4.2c0-0.7-0.1-1.2-0.3-1.5c-0.2-0.3-0.5-0.5-0.9-0.5c-0.4,0-0.8,0.2-1,0.5
			c-0.2,0.3-0.3,0.8-0.3,1.5v4.2h-2.1V8.4h2v1h0c0.6-0.8,1.3-1.3,2.3-1.3c0.5,0,1,0.1,1.3,0.3c0.4,0.2,0.6,0.5,0.8,0.9
			C114.3,9,114.6,8.7,115,8.5z"/>
		<path id="Layer_00000031892340124884787410000013766754082552027292_" class="st1" d="M128,14.3c-0.3,0.6-0.6,1.1-1.1,1.5
			c-0.5,0.4-1.1,0.5-1.8,0.5c-0.5,0-0.9-0.1-1.3-0.3c-0.4-0.2-0.7-0.5-0.9-0.9h0v3.7h-2.1V8.4h2v1h0c0.5-0.8,1.2-1.2,2.2-1.2
			c0.7,0,1.3,0.2,1.8,0.6c0.5,0.4,0.9,0.9,1.1,1.5c0.3,0.6,0.4,1.3,0.4,2.1C128.4,13.1,128.3,13.7,128,14.3z M123.3,14
			c0.3,0.4,0.7,0.7,1.3,0.7c0.6,0,1-0.2,1.3-0.7c0.3-0.4,0.4-1,0.4-1.8c0-0.4-0.1-0.8-0.2-1.2c-0.1-0.4-0.3-0.7-0.6-0.9
			c-0.3-0.2-0.6-0.3-1-0.3c-0.5,0-1,0.2-1.3,0.6c-0.3,0.4-0.4,1-0.4,1.8C122.8,13,123,13.6,123.3,14z"/>
		<path id="Layer_00000017474414810432238160000009456755475727106188_" class="st0" d="M132.1,6.7c-0.1,0.2-0.3,0.3-0.4,0.4
			c-0.2,0.1-0.4,0.2-0.6,0.2c-0.2,0-0.4-0.1-0.6-0.2c-0.2-0.1-0.3-0.2-0.4-0.4c-0.1-0.2-0.2-0.4-0.2-0.6c0-0.2,0.1-0.4,0.2-0.6
			c0.1-0.2,0.3-0.3,0.4-0.4c0.2-0.1,0.4-0.2,0.6-0.2c0.2,0,0.4,0.1,0.6,0.2c0.2,0.1,0.3,0.3,0.4,0.4c0.1,0.2,0.1,0.4,0.1,0.6
			C132.2,6.3,132.2,6.5,132.1,6.7z M132,8.4v7.7h-2.1V8.4H132z"/>
		<path id="Layer_00000135691822039951074600000009644234960288806060_" class="st1" d="M140.9,14.4c-0.3,0.6-0.8,1.1-1.4,1.4
			c-0.6,0.3-1.3,0.5-2,0.5c-0.8,0-1.5-0.2-2-0.5c-0.6-0.3-1-0.8-1.3-1.4c-0.3-0.6-0.5-1.3-0.5-2.1c0-0.8,0.2-1.5,0.5-2.1
			c0.3-0.6,0.8-1.1,1.3-1.4c0.6-0.3,1.3-0.5,2-0.5c0.8,0,1.5,0.2,2,0.5c0.6,0.3,1,0.8,1.3,1.4c0.3,0.6,0.5,1.3,0.5,2.1
			C141.4,13.1,141.2,13.8,140.9,14.4z M138.8,14.1c0.3-0.4,0.4-1,0.4-1.8c0-0.7-0.1-1.3-0.4-1.8c-0.3-0.5-0.7-0.7-1.4-0.7
			c-0.6,0-1,0.2-1.3,0.6c-0.3,0.4-0.4,1-0.4,1.8c0,0.8,0.1,1.4,0.4,1.8c0.3,0.4,0.7,0.6,1.3,0.6C138.1,14.7,138.5,14.5,138.8,14.1z"
			/>
		<path id="Layer_00000128464635415059426230000015155460038157439135_" class="st0" d="M150,16.1h-2.1v-4.2c0-0.7-0.1-1.2-0.3-1.5
			c-0.2-0.3-0.6-0.5-1-0.5c-0.5,0-0.9,0.2-1.1,0.5c-0.3,0.3-0.4,0.8-0.4,1.5v4.2h-2.1V8.4h2v1.1h0c0.3-0.4,0.6-0.7,1-0.9
			c0.4-0.2,0.8-0.3,1.3-0.3c0.9,0,1.6,0.3,2.1,0.8c0.5,0.5,0.7,1.3,0.7,2.3V16.1L150,16.1z"/>
	</g>
	<g id="Group_30">
		<path id="Path_2756" class="st0" d="M50.7,8.6c-0.3-0.9-0.8-1.7-1.4-2.5c-0.7-0.8-1.5-1.4-2.5-1.8c-1.2-0.5-2.5-0.7-3.7-0.7h-4.4
			v1.1C39.2,5.2,39.7,5.6,40,6c0,0.1,0.2,0.2,0.4,0.5c0.8,0,1.2,0,1.2,0h2.3c0.4,0,0.8,0.1,1.2,0.2c0.5,0.1,1,0.4,1.4,0.7
			c0.5,0.4,0.9,0.8,1.1,1.4c0.3,0.7,0.5,1.5,0.5,2.3c0,0.7-0.1,1.3-0.4,2c-0.2,0.5-0.6,1-1,1.4c-0.4,0.4-1,0.7-1.5,0.9
			c-0.6,0.2-1.3,0.3-2,0.3h-2.7c-0.3,0.4-0.6,0.7-0.9,1.1c-0.3,0.3-0.6,0.5-0.9,0.7v1h5.1c1,0,1.9-0.2,2.8-0.5
			c0.9-0.3,1.7-0.8,2.3-1.4c0.7-0.6,1.2-1.4,1.6-2.2c0.4-0.9,0.6-1.9,0.6-2.9C51.1,10.4,51,9.5,50.7,8.6z"/>
		<path id="Path_2757" class="st0" d="M60.7,8.6c-0.3-0.9-0.8-1.7-1.4-2.5c-0.7-0.8-1.5-1.4-2.5-1.8c-1.2-0.5-2.5-0.7-3.7-0.7h-4.4
			v1.1c0.5,0.3,0.9,0.7,1.3,1.1c0,0.1,0.2,0.2,0.4,0.5c0.8,0,1.2,0,1.2,0H54c0.4,0,0.8,0.1,1.2,0.2c0.5,0.1,1,0.4,1.4,0.7
			c0.5,0.4,0.9,0.8,1.1,1.4c0.3,0.7,0.5,1.5,0.5,2.3c0,0.7-0.1,1.3-0.3,2c-0.2,0.5-0.6,1-1,1.4c-0.4,0.4-1,0.7-1.5,0.9
			c-0.6,0.2-1.3,0.3-2,0.3h-2.7c-0.3,0.4-0.6,0.7-0.9,1.1c-0.3,0.3-0.6,0.5-0.9,0.7v1h5.1c1,0,1.9-0.2,2.8-0.5
			c0.9-0.3,1.7-0.8,2.3-1.4c0.7-0.6,1.2-1.4,1.6-2.2c0.4-0.9,0.6-1.9,0.6-2.9C61.2,10.4,61,9.5,60.7,8.6z"/>
		<path id="Path_2758" class="st0" d="M70.5,8.6c-0.3-0.9-0.8-1.7-1.4-2.5c-0.7-0.8-1.5-1.4-2.5-1.8c-1.2-0.5-2.5-0.7-3.7-0.7h-4.4
			v1.1C59,5.2,59.5,5.6,59.8,6c0,0.1,0.2,0.2,0.4,0.5c0.8,0,1.2,0,1.2,0h2.3c0.4,0,0.8,0.1,1.2,0.2c0.5,0.1,1,0.4,1.4,0.7
			c0.5,0.4,0.9,0.8,1.1,1.4c0.3,0.7,0.5,1.5,0.5,2.3c0,0.7-0.1,1.3-0.3,2c-0.2,0.5-0.6,1-1,1.4c-0.4,0.4-1,0.7-1.5,0.9
			c-0.6,0.2-1.3,0.3-2,0.3h-2.7c-0.3,0.4-0.6,0.7-0.9,1.1c-0.3,0.3-0.6,0.5-0.9,0.7v1h5.1c1,0,1.9-0.2,2.8-0.5
			c0.9-0.3,1.7-0.8,2.3-1.4c0.7-0.6,1.2-1.4,1.6-2.2c0.4-0.9,0.6-1.9,0.6-2.9C70.9,10.4,70.8,9.5,70.5,8.6z"/>
		<g id="Group_29">
			<path id="Path_2761" class="st0" d="M32.2,17.9c-0.7-0.3-1.2-0.8-1.6-1.4c-0.4-0.6-0.6-1.4-0.7-2.2h2.8c0,0.3,0.1,0.5,0.3,0.8
				c0.1,0.2,0.3,0.4,0.5,0.5c0.2,0.1,0.5,0.2,0.7,0.2c0.4,0,0.9-0.1,1.2-0.4c0.3-0.3,0.4-0.8,0.4-1.2v-0.3c0-0.4-0.1-0.9-0.3-1.3
				c-0.2-0.3-0.6-0.5-1-0.4h-1.2V9.5h1.2c0.3,0,0.6-0.1,0.8-0.4c0.2-0.3,0.3-0.7,0.3-1.1V7.7c0-0.4-0.1-0.7-0.3-1
				c-0.2-0.3-0.5-0.4-0.9-0.4c-0.2,0-0.5,0.1-0.7,0.2c-0.2,0.1-0.4,0.3-0.5,0.5C33.1,7.4,33,7.6,33,8h-2.8c0.1-0.8,0.3-1.6,0.7-2.3
				c0.4-0.6,0.9-1.1,1.5-1.5c0.7-0.3,1.4-0.5,2.1-0.5c1.1-0.1,2.1,0.3,2.9,1c0.7,0.7,1.1,1.7,1,2.8v0.4c0,0.6-0.2,1.2-0.5,1.7
				c-0.3,0.5-0.9,0.9-1.4,1.1c0.7,0.1,1.2,0.5,1.6,1.1c0.4,0.6,0.6,1.4,0.6,2.2v0.4c0,0.8-0.1,1.5-0.5,2.1c-0.3,0.6-0.8,1.1-1.4,1.4
				c-0.7,0.3-1.5,0.5-2.3,0.5C33.7,18.4,33,18.3,32.2,17.9z"/>
		</g>
	</g>
</g>
<g>
	<path id="Path_4" class="st2" d="M17.1,20.9c-0.7,0.5-1.7,0.6-2.4,0.3c-0.1-0.1-0.3-0.2-0.4-0.3C14.1,20.7,9.9,16,9.9,16l0,0
		c1.3,0.2,2.7-0.4,3.4-1.5c0.7-1.1,0.7-2.6,0-3.6c-0.8-1.1-2.4-1.5-3.7-1.4c-2.3,0.3-4,2.4-4.5,4.5C4.6,16.5,5,18.8,5.8,21
		c0.2,0.5,0.5,0.9,0.8,1.3c-2.4-1.1-4.6-3-5.7-5.6c-1.2-2.8-1.2-6.4,0.3-9.2c1.2-2.2,3.2-4.2,5.8-5.1c2.7-1.1,6.3-0.9,8.9,0.6
		c3.2,1.6,5.5,5.5,5.6,9C21.4,15.5,19.8,18.8,17.1,20.9L17.1,20.9z"/>
	<path id="Path_5" class="st2" d="M8.2,22.3C7,21,6.1,19.3,6.8,17.6C7.4,16.3,8,15,8.3,13.4c0.1,1.6,1.1,3,1.5,4.5
		c0.2,0.7,0.2,1.5-0.1,2.2c-0.3,0.8-0.8,1.5-1.4,2.2L8.2,22.3z"/>
</g>
</svg>
