<svg version="1.2" baseProfile="tiny-ps" xmlns="http://www.w3.org/2000/svg" viewBox="0 0 150 24" width="150" height="24">
	<title>homelogo-svg</title>
	<style>
		tspan { white-space:pre }
		.shp0 { fill: #ffffff } 
	</style>
	<g id="Layer">
		<g id="Layer">
			<path id="Layer" class="shp0" d="M65.12 8.53C65.06 8.21 64.92 7.91 64.7 7.66C64.46 7.4 64.17 7.19 63.81 7.04C63.46 6.89 63.06 6.82 62.62 6.82C61.93 6.82 61.35 6.98 60.88 7.32C60.4 7.65 60.06 8.12 59.81 8.72C59.58 9.32 59.46 10.02 59.46 10.83C59.46 11.59 59.58 12.26 59.81 12.86C60.05 13.44 60.4 13.9 60.88 14.24C61.37 14.58 61.96 14.75 62.66 14.75C63.39 14.75 63.97 14.57 64.41 14.19C64.84 13.82 65.12 13.27 65.23 12.56L67.84 12.56C67.76 13.46 67.49 14.24 67.03 14.92C66.58 15.6 65.97 16.12 65.21 16.49C64.44 16.86 63.58 17.04 62.61 17.04C61.41 17.04 60.37 16.77 59.5 16.24C58.63 15.7 57.96 14.97 57.48 14.02C57.02 13.09 56.79 12.02 56.79 10.84C56.79 9.65 56.99 8.57 57.47 7.61C57.93 6.66 58.6 5.9 59.49 5.35C60.36 4.81 61.41 4.54 62.59 4.54C63.49 4.54 64.31 4.7 65.06 5.01C65.8 5.33 66.41 5.79 66.88 6.39C67.35 6.99 67.63 7.71 67.72 8.53L65.12 8.53L65.12 8.53Z" />
			<path id="Layer" class="shp0" d="M72.1 9.06L72.14 9.06C72.42 8.6 72.78 8.23 73.24 7.98C73.7 7.71 74.19 7.58 74.7 7.58C75.75 7.58 76.54 7.86 77.05 8.46C77.57 9.06 77.83 9.95 77.83 11.15L77.83 16.75L75.39 16.75L75.39 11.85C75.39 11.02 75.26 10.42 75 10.06C74.75 9.71 74.34 9.53 73.81 9.53C73.25 9.53 72.82 9.71 72.54 10.07C72.25 10.43 72.1 11.02 72.1 11.85L72.1 16.75L69.66 16.75L69.66 4.41L72.1 4.41L72.1 9.06L72.1 9.06Z" />
			<path id="Layer" fill-rule="evenodd" class="shp0" d="M85.27 10.9C85.27 10.31 85.16 9.88 84.93 9.61C84.71 9.34 84.32 9.21 83.78 9.21C83.3 9.21 82.93 9.3 82.68 9.46C82.43 9.63 82.28 9.9 82.23 10.27L79.82 10.27C79.86 9.39 80.24 8.73 80.96 8.26C81.69 7.79 82.67 7.56 83.9 7.56C85.21 7.56 86.18 7.85 86.79 8.41C87.4 8.98 87.71 9.86 87.71 11.07L87.71 16.76L85.52 16.76L85.38 15.61L85.34 15.61C85.15 16.01 84.82 16.34 84.36 16.61C83.9 16.87 83.31 17 82.62 17C82 17 81.47 16.89 81 16.67C80.53 16.46 80.18 16.13 79.93 15.7C79.67 15.27 79.55 14.76 79.55 14.16C79.55 13.16 79.93 12.42 80.68 11.95C81.45 11.48 82.54 11.24 83.95 11.24L85.28 11.24L85.28 10.9L85.27 10.9ZM84.28 12.7C83.53 12.7 82.97 12.79 82.57 12.99C82.18 13.18 81.99 13.51 81.99 13.98C81.99 14.38 82.11 14.68 82.36 14.88C82.6 15.09 82.94 15.18 83.37 15.18C83.73 15.18 84.06 15.11 84.35 14.96C84.64 14.81 84.87 14.59 85.03 14.31C85.18 14.02 85.27 13.69 85.27 13.28L85.27 12.7L84.28 12.7Z" />
			<path id="Layer" class="shp0" d="M98.53 7.96C98.98 7.7 99.49 7.58 100.07 7.58C101.05 7.58 101.8 7.85 102.34 8.42C102.87 8.98 103.13 9.75 103.13 10.76L103.13 16.76L100.69 16.76L100.69 11.86C100.69 11.02 100.57 10.43 100.33 10.07C100.11 9.72 99.75 9.54 99.26 9.54C98.76 9.54 98.38 9.72 98.12 10.08C97.85 10.44 97.71 11.03 97.71 11.86L97.71 16.76L95.27 16.76L95.27 11.86C95.27 11.02 95.16 10.43 94.93 10.07C94.7 9.72 94.33 9.54 93.85 9.54C93.35 9.54 92.96 9.72 92.7 10.08C92.44 10.44 92.31 11.03 92.31 11.86L92.31 16.76L89.87 16.76L89.87 7.82L92.16 7.82L92.16 9.03L92.2 9.03C92.85 8.06 93.73 7.58 94.84 7.58C95.46 7.58 95.98 7.71 96.4 7.98C96.82 8.23 97.14 8.6 97.35 9.07C97.67 8.58 98.06 8.22 98.53 7.96Z" />
			<path id="Layer" fill-rule="evenodd" class="shp0" d="M113.58 14.7C113.29 15.39 112.86 15.95 112.29 16.38C111.73 16.79 111.05 17 110.25 17C109.71 17 109.22 16.88 108.77 16.65C108.33 16.42 107.96 16.09 107.68 15.66L107.64 15.66L107.64 19.91L105.21 19.91L105.21 7.82L107.53 7.82L107.53 8.97L107.55 8.97C108.13 8.04 108.99 7.58 110.12 7.58C110.96 7.58 111.67 7.79 112.26 8.22C112.84 8.63 113.27 9.21 113.57 9.94C113.86 10.66 114.01 11.48 114.01 12.39C114.02 13.23 113.87 13.99 113.58 14.7ZM108.08 14.36C108.43 14.87 108.92 15.14 109.59 15.14C110.26 15.14 110.77 14.88 111.09 14.37C111.42 13.86 111.58 13.18 111.58 12.32C111.58 11.82 111.51 11.36 111.39 10.93C111.26 10.5 111.04 10.14 110.74 9.86C110.44 9.6 110.04 9.46 109.56 9.46C108.93 9.46 108.44 9.7 108.09 10.21C107.74 10.71 107.57 11.42 107.57 12.33C107.57 13.15 107.74 13.84 108.08 14.36Z" />
			<path id="Layer" class="shp0" d="M118.27 5.88C118.15 6.1 117.98 6.25 117.76 6.38C117.54 6.5 117.3 6.56 117.02 6.56C116.75 6.56 116.5 6.5 116.28 6.38C116.07 6.26 115.89 6.1 115.78 5.88C115.66 5.67 115.59 5.44 115.59 5.18C115.59 4.91 115.66 4.67 115.78 4.46C115.89 4.26 116.07 4.09 116.28 3.97C116.5 3.85 116.75 3.79 117.02 3.79C117.3 3.79 117.54 3.85 117.76 3.97C117.98 4.09 118.15 4.26 118.27 4.46C118.39 4.68 118.44 4.91 118.44 5.18C118.44 5.44 118.39 5.67 118.27 5.88ZM118.24 7.82L118.24 16.76L115.8 16.76L115.8 7.82L118.24 7.82Z" />
			<path id="Layer" fill-rule="evenodd" class="shp0" d="M128.53 14.78C128.14 15.49 127.62 16.03 126.94 16.42C126.27 16.81 125.49 17 124.6 17C123.7 17 122.91 16.81 122.24 16.42C121.57 16.02 121.04 15.48 120.68 14.76C120.32 14.06 120.13 13.23 120.13 12.3C120.13 11.35 120.32 10.52 120.68 9.82C121.04 9.1 121.57 8.56 122.24 8.16C122.91 7.76 123.7 7.58 124.6 7.58C125.51 7.58 126.3 7.77 126.97 8.16C127.64 8.55 128.16 9.1 128.53 9.82C128.9 10.54 129.08 11.36 129.08 12.3C129.09 13.24 128.91 14.07 128.53 14.78ZM126.13 14.38C126.47 13.89 126.65 13.19 126.65 12.3C126.65 11.47 126.49 10.78 126.17 10.24C125.85 9.7 125.33 9.44 124.59 9.44C123.95 9.44 123.45 9.69 123.09 10.18C122.74 10.68 122.57 11.38 122.57 12.3C122.57 13.21 122.74 13.9 123.09 14.39C123.44 14.88 123.95 15.13 124.61 15.13C125.27 15.13 125.78 14.88 126.13 14.38Z" />
			<path id="Layer" class="shp0" d="M139.06 16.76L136.62 16.76L136.62 11.86C136.62 11.02 136.49 10.43 136.23 10.07C135.98 9.72 135.58 9.54 135.04 9.54C134.48 9.54 134.05 9.72 133.77 10.08C133.48 10.44 133.33 11.03 133.33 11.86L133.33 16.76L130.89 16.76L130.89 7.82L133.23 7.82L133.23 9.07L133.27 9.07C133.56 8.61 133.93 8.24 134.39 7.98C134.86 7.72 135.35 7.58 135.88 7.58C136.95 7.58 137.74 7.87 138.27 8.47C138.8 9.06 139.06 9.96 139.06 11.16L139.06 16.76L139.06 16.76Z" />
			<path id="Layer" class="shp0" d="M146.22 10.21C146.19 9.86 146.06 9.61 145.81 9.46C145.56 9.3 145.18 9.22 144.71 9.22C144.26 9.22 143.93 9.3 143.7 9.44C143.48 9.58 143.37 9.78 143.37 10.06C143.37 10.26 143.42 10.43 143.55 10.57C143.68 10.7 143.87 10.82 144.11 10.9C144.36 10.99 144.69 11.1 145.12 11.18L146.12 11.41C147.02 11.62 147.69 11.94 148.12 12.37C148.56 12.81 148.77 13.37 148.77 14.06C148.77 14.74 148.59 15.32 148.23 15.76C147.88 16.21 147.39 16.53 146.79 16.73C146.2 16.92 145.54 17.02 144.81 17.02C144.02 17.02 143.32 16.9 142.71 16.69C142.11 16.47 141.62 16.14 141.28 15.71C140.93 15.27 140.76 14.74 140.76 14.11L143.07 14.11C143.08 14.51 143.25 14.82 143.57 15.04C143.91 15.26 144.32 15.37 144.82 15.37C145.26 15.37 145.62 15.29 145.9 15.12C146.19 14.94 146.34 14.68 146.34 14.34C146.34 14.03 146.2 13.78 145.94 13.58C145.68 13.38 145.26 13.22 144.69 13.09L143.71 12.86C143.06 12.71 142.53 12.52 142.12 12.3C141.72 12.07 141.41 11.8 141.21 11.48C141.02 11.15 140.93 10.76 140.93 10.3C140.93 9.72 141.08 9.22 141.4 8.82C141.73 8.41 142.17 8.1 142.74 7.9C143.31 7.69 143.98 7.59 144.75 7.59C145.91 7.59 146.82 7.82 147.47 8.26C148.12 8.72 148.46 9.36 148.51 10.22L146.22 10.22L146.22 10.21Z" />
		</g>
		<g id="Group_30">
			<path id="Path_2756" class="shp0" d="M24.02 8.06C23.68 7 23.13 6.04 22.43 5.21C21.63 4.31 20.65 3.62 19.55 3.18C18.17 2.63 16.69 2.37 15.21 2.42L10.16 2.42L10.16 3.71C10.73 4.08 11.24 4.53 11.68 5.04C11.73 5.1 11.92 5.3 12.13 5.62C13.07 5.62 13.49 5.62 13.49 5.62L16.2 5.62C16.67 5.64 17.14 5.71 17.61 5.84C18.19 6.01 18.74 6.28 19.22 6.64C19.79 7.06 20.25 7.62 20.55 8.27C20.94 9.12 21.13 10.06 21.09 10.98C21.1 11.76 20.97 12.52 20.68 13.24C20.44 13.86 20.04 14.43 19.54 14.87C19.02 15.32 18.41 15.66 17.76 15.86C17.02 16.09 16.25 16.21 15.47 16.2L12.32 16.2C12 16.64 11.64 17.05 11.25 17.42C10.91 17.72 10.56 18 10.17 18.25L10.17 19.44L16.04 19.44C17.16 19.45 18.26 19.25 19.29 18.87C20.3 18.51 21.21 17.96 22.01 17.23C22.79 16.51 23.42 15.62 23.86 14.65C24.32 13.58 24.55 12.41 24.54 11.24C24.51 10.14 24.35 9.07 24.02 8.06Z" />
			<path id="Path_2757" class="shp0" d="M35.67 8.06C35.34 7.01 34.79 6.04 34.07 5.21C33.28 4.31 32.3 3.62 31.19 3.18C29.81 2.63 28.33 2.37 26.86 2.42L21.81 2.42L21.81 3.71C22.38 4.08 22.89 4.53 23.33 5.04C23.38 5.1 23.57 5.3 23.79 5.62C24.73 5.62 25.14 5.62 25.14 5.62L27.84 5.62C28.31 5.64 28.78 5.71 29.25 5.84C29.83 6.01 30.38 6.28 30.87 6.64C31.43 7.06 31.89 7.62 32.19 8.27C32.58 9.12 32.77 10.06 32.73 10.98C32.75 11.76 32.61 12.52 32.33 13.24C32.08 13.86 31.69 14.43 31.18 14.87C30.66 15.32 30.06 15.66 29.4 15.86C28.66 16.09 27.88 16.21 27.11 16.2L23.96 16.2C23.64 16.64 23.28 17.05 22.89 17.42C22.56 17.72 22.19 18 21.81 18.25L21.81 19.44L27.69 19.44C28.8 19.45 29.91 19.25 30.94 18.87C31.94 18.51 32.86 17.96 33.65 17.23C34.43 16.51 35.07 15.62 35.49 14.65C35.95 13.58 36.19 12.41 36.17 11.24C36.17 10.14 36 9.07 35.67 8.06Z" />
			<path id="Path_2758" class="shp0" d="M46.97 8.06C46.63 7.01 46.08 6.04 45.36 5.21C44.57 4.31 43.59 3.62 42.48 3.18C41.11 2.63 39.62 2.37 38.15 2.42L33.1 2.42L33.1 3.71C33.67 4.08 34.18 4.53 34.62 5.04C34.67 5.1 34.86 5.3 35.08 5.62C36.02 5.62 36.43 5.62 36.43 5.62L39.13 5.62C39.61 5.64 40.07 5.71 40.54 5.84C41.12 6.01 41.67 6.28 42.16 6.64C42.73 7.06 43.18 7.62 43.48 8.27C43.88 9.12 44.06 10.06 44.03 10.98C44.04 11.76 43.91 12.52 43.63 13.24C43.38 13.86 42.99 14.43 42.47 14.87C41.95 15.32 41.35 15.66 40.71 15.86C39.96 16.09 39.19 16.21 38.41 16.2L35.26 16.2C34.94 16.64 34.58 17.05 34.18 17.42C33.85 17.72 33.49 18 33.11 18.25L33.11 19.44L38.98 19.44C40.1 19.45 41.2 19.25 42.24 18.87C43.24 18.51 44.16 17.96 44.94 17.23C45.73 16.51 46.37 15.62 46.79 14.65C47.25 13.58 47.49 12.41 47.47 11.24C47.47 10.14 47.3 9.07 46.97 8.06Z" />
			<g id="Group_29">
				<path id="Path_2761" class="shp0" d="M2.63 18.87C1.86 18.53 1.22 17.97 0.76 17.27C0.28 16.52 0.02 15.66 0 14.76L3.21 14.76C3.24 15.07 3.35 15.37 3.51 15.64C3.66 15.87 3.87 16.06 4.11 16.19C4.37 16.32 4.67 16.38 4.96 16.38C5.46 16.41 5.95 16.22 6.33 15.88C6.67 15.5 6.84 14.99 6.81 14.47L6.81 14.08C6.84 13.57 6.71 13.05 6.42 12.62C6.15 12.26 5.73 12.07 5.3 12.1L3.9 12.1L3.9 9.06L5.3 9.06C5.66 9.08 6.01 8.92 6.21 8.62C6.46 8.24 6.57 7.8 6.54 7.34L6.54 7.06C6.57 6.64 6.44 6.22 6.18 5.88C5.93 5.59 5.56 5.43 5.17 5.46C4.9 5.46 4.63 5.54 4.41 5.68C4.16 5.83 3.96 6.06 3.82 6.31C3.65 6.62 3.54 6.95 3.47 7.31L0.27 7.31C0.34 6.38 0.62 5.48 1.08 4.68C1.51 3.96 2.12 3.38 2.85 2.99C3.61 2.6 4.44 2.4 5.29 2.42C6.52 2.33 7.74 2.74 8.68 3.54C9.52 4.38 9.96 5.56 9.88 6.74L9.88 7.25C9.9 7.96 9.7 8.67 9.31 9.26C8.91 9.85 8.32 10.3 7.66 10.55C8.42 10.7 9.08 11.16 9.51 11.82C9.97 12.57 10.19 13.44 10.16 14.33L10.16 14.83C10.18 15.7 9.99 16.55 9.6 17.32C9.21 18 8.64 18.55 7.93 18.89C7.11 19.26 6.21 19.46 5.31 19.43C4.38 19.44 3.47 19.25 2.63 18.87Z" />
			</g>
		</g>
	</g>
</svg>