<svg version="1.2" baseProfile="tiny-ps" xmlns="http://www.w3.org/2000/svg" viewBox="0 0 190 47" width="190" height="47">
	<title>homelogo-svg</title>
	<style>
		tspan { white-space:pre }
		.shp0 { fill: #ffffff } 
	</style>
	<g id="Layer">
		<g id="Layer">
			<path id="Layer" class="shp0" d="M82.48 7.66C82.41 7.26 82.23 6.89 81.95 6.57C81.65 6.25 81.28 5.99 80.83 5.8C80.38 5.61 79.87 5.52 79.32 5.52C78.45 5.52 77.71 5.72 77.12 6.15C76.51 6.56 76.07 7.15 75.76 7.9C75.47 8.65 75.32 9.52 75.32 10.54C75.32 11.49 75.47 12.33 75.76 13.07C76.06 13.8 76.51 14.38 77.12 14.8C77.74 15.23 78.48 15.44 79.37 15.44C80.29 15.44 81.03 15.21 81.59 14.74C82.13 14.27 82.48 13.59 82.63 12.7L85.93 12.7C85.83 13.83 85.49 14.8 84.91 15.65C84.34 16.5 83.56 17.15 82.6 17.61C81.63 18.07 80.54 18.3 79.31 18.3C77.79 18.3 76.47 17.96 75.37 17.3C74.26 16.63 73.41 15.71 72.81 14.53C72.22 13.36 71.93 12.03 71.93 10.55C71.93 9.06 72.19 7.71 72.79 6.51C73.38 5.32 74.23 4.38 75.35 3.69C76.46 3.01 77.78 2.67 79.28 2.67C80.42 2.67 81.46 2.87 82.41 3.26C83.35 3.66 84.12 4.24 84.72 4.99C85.31 5.74 85.66 6.64 85.78 7.66L82.48 7.66L82.48 7.66Z" />
			<path id="Layer" class="shp0" d="M91.33 8.33L91.38 8.33C91.73 7.75 92.19 7.29 92.77 6.97C93.35 6.64 93.97 6.47 94.62 6.47C95.95 6.47 96.95 6.83 97.6 7.58C98.25 8.32 98.58 9.44 98.58 10.94L98.58 17.94L95.49 17.94L95.49 11.81C95.49 10.77 95.33 10.03 95 9.58C94.68 9.14 94.17 8.91 93.49 8.91C92.78 8.91 92.24 9.14 91.88 9.59C91.52 10.04 91.33 10.78 91.33 11.81L91.33 17.94L88.24 17.94L88.24 2.51L91.33 2.51L91.33 8.33L91.33 8.33Z" />
			<path id="Layer" fill-rule="evenodd" class="shp0" d="M108.01 10.62C108.01 9.89 107.87 9.35 107.58 9.01C107.3 8.68 106.81 8.51 106.12 8.51C105.51 8.51 105.04 8.62 104.73 8.83C104.41 9.04 104.22 9.38 104.16 9.84L101.1 9.84C101.15 8.74 101.64 7.91 102.55 7.32C103.47 6.74 104.71 6.45 106.27 6.45C107.93 6.45 109.16 6.81 109.94 7.51C110.71 8.22 111.1 9.32 111.1 10.84L111.1 17.95L108.32 17.95L108.15 16.51L108.1 16.51C107.86 17.01 107.44 17.43 106.85 17.76C106.27 18.09 105.53 18.25 104.65 18.25C103.87 18.25 103.19 18.11 102.6 17.84C102.01 17.57 101.56 17.16 101.24 16.63C100.92 16.09 100.76 15.45 100.76 14.7C100.76 13.45 101.24 12.53 102.2 11.94C103.17 11.35 104.55 11.05 106.34 11.05L108.02 11.05L108.02 10.62L108.01 10.62ZM106.75 12.87C105.8 12.87 105.09 12.99 104.59 13.24C104.1 13.48 103.86 13.89 103.86 14.47C103.86 14.97 104.01 15.35 104.32 15.6C104.63 15.86 105.06 15.98 105.6 15.98C106.06 15.98 106.48 15.89 106.84 15.7C107.21 15.51 107.5 15.24 107.7 14.89C107.9 14.53 108.01 14.11 108.01 13.6L108.01 12.87L106.75 12.87Z" />
			<path id="Layer" class="shp0" d="M124.8 6.95C125.37 6.63 126.02 6.47 126.75 6.47C128 6.47 128.95 6.81 129.63 7.52C130.3 8.22 130.63 9.19 130.63 10.45L130.63 17.95L127.54 17.95L127.54 11.82C127.54 10.78 127.39 10.04 127.09 9.59C126.8 9.15 126.35 8.92 125.73 8.92C125.09 8.92 124.61 9.15 124.28 9.6C123.94 10.05 123.77 10.79 123.77 11.82L123.77 17.95L120.68 17.95L120.68 11.82C120.68 10.78 120.53 10.04 120.24 9.59C119.95 9.15 119.49 8.92 118.88 8.92C118.24 8.92 117.75 9.15 117.42 9.6C117.09 10.05 116.92 10.79 116.92 11.82L116.92 17.95L113.83 17.95L113.83 6.78L116.74 6.78L116.74 8.29L116.79 8.29C117.61 7.08 118.73 6.48 120.13 6.48C120.92 6.48 121.58 6.64 122.11 6.97C122.64 7.29 123.05 7.75 123.31 8.34C123.72 7.73 124.21 7.27 124.8 6.95Z" />
			<path id="Layer" fill-rule="evenodd" class="shp0" d="M143.87 15.37C143.5 16.24 142.95 16.94 142.24 17.47C141.52 17.99 140.66 18.25 139.65 18.25C138.97 18.25 138.35 18.1 137.78 17.81C137.22 17.52 136.75 17.11 136.39 16.57L136.35 16.57L136.35 21.89L133.26 21.89L133.26 6.78L136.21 6.78L136.21 8.21L136.23 8.21C136.96 7.05 138.05 6.48 139.49 6.48C140.55 6.48 141.45 6.74 142.19 7.27C142.93 7.79 143.48 8.51 143.85 9.42C144.22 10.33 144.41 11.35 144.41 12.49C144.42 13.54 144.24 14.49 143.87 15.37ZM136.9 14.95C137.34 15.59 137.97 15.92 138.81 15.92C139.66 15.92 140.31 15.6 140.71 14.96C141.13 14.33 141.34 13.47 141.34 12.4C141.34 11.78 141.25 11.2 141.09 10.66C140.93 10.12 140.65 9.67 140.27 9.33C139.89 9 139.39 8.82 138.78 8.82C137.98 8.82 137.36 9.13 136.91 9.76C136.47 10.39 136.25 11.27 136.25 12.41C136.25 13.44 136.47 14.3 136.9 14.95Z" />
			<path id="Layer" class="shp0" d="M149.81 4.35C149.66 4.62 149.44 4.81 149.16 4.97C148.89 5.12 148.58 5.2 148.23 5.2C147.88 5.2 147.57 5.12 147.29 4.97C147.02 4.82 146.8 4.62 146.65 4.35C146.5 4.09 146.42 3.8 146.42 3.47C146.42 3.14 146.5 2.84 146.65 2.58C146.8 2.32 147.02 2.11 147.29 1.96C147.57 1.81 147.88 1.74 148.23 1.74C148.58 1.74 148.89 1.81 149.16 1.96C149.44 2.11 149.66 2.32 149.81 2.58C149.96 2.85 150.03 3.14 150.03 3.47C150.03 3.8 149.96 4.09 149.81 4.35ZM149.77 6.78L149.77 17.95L146.68 17.95L146.68 6.78L149.77 6.78Z" />
			<path id="Layer" fill-rule="evenodd" class="shp0" d="M162.8 15.47C162.31 16.36 161.65 17.04 160.79 17.53C159.94 18.01 158.95 18.25 157.83 18.25C156.69 18.25 155.69 18.01 154.84 17.52C153.99 17.03 153.32 16.35 152.86 15.45C152.4 14.57 152.16 13.54 152.16 12.37C152.16 11.19 152.4 10.15 152.86 9.27C153.32 8.38 153.99 7.7 154.84 7.2C155.69 6.7 156.69 6.47 157.83 6.47C158.98 6.47 159.98 6.71 160.83 7.2C161.68 7.69 162.34 8.38 162.8 9.28C163.27 10.17 163.5 11.2 163.5 12.37C163.51 13.55 163.28 14.59 162.8 15.47ZM159.76 14.98C160.2 14.36 160.42 13.49 160.42 12.37C160.42 11.34 160.22 10.48 159.82 9.8C159.41 9.13 158.75 8.8 157.81 8.8C157 8.8 156.37 9.11 155.92 9.73C155.47 10.35 155.25 11.22 155.25 12.37C155.25 13.51 155.47 14.38 155.91 14.99C156.36 15.6 157 15.91 157.84 15.91C158.67 15.91 159.32 15.6 159.76 14.98Z" />
			<path id="Layer" class="shp0" d="M176.14 17.95L173.05 17.95L173.05 11.82C173.05 10.78 172.89 10.04 172.56 9.59C172.24 9.15 171.73 8.92 171.05 8.92C170.34 8.92 169.8 9.15 169.44 9.6C169.08 10.05 168.89 10.79 168.89 11.82L168.89 17.95L165.8 17.95L165.8 6.78L168.76 6.78L168.76 8.34L168.81 8.34C169.17 7.76 169.65 7.3 170.23 6.97C170.82 6.65 171.44 6.48 172.12 6.48C173.47 6.48 174.47 6.84 175.14 7.59C175.81 8.33 176.14 9.45 176.14 10.95L176.14 17.95L176.14 17.95Z" />
			<path id="Layer" class="shp0" d="M185.21 9.76C185.18 9.32 185.01 9.01 184.69 8.82C184.37 8.62 183.9 8.53 183.3 8.53C182.73 8.53 182.31 8.62 182.02 8.8C181.74 8.98 181.6 9.23 181.6 9.57C181.6 9.83 181.67 10.04 181.83 10.21C181.99 10.38 182.23 10.52 182.54 10.63C182.85 10.74 183.28 10.87 183.82 10.98L185.08 11.26C186.22 11.52 187.07 11.92 187.62 12.46C188.17 13.01 188.44 13.71 188.44 14.57C188.44 15.43 188.21 16.15 187.76 16.7C187.31 17.26 186.7 17.66 185.94 17.91C185.19 18.15 184.35 18.27 183.42 18.27C182.42 18.27 181.54 18.13 180.76 17.86C180 17.59 179.39 17.18 178.95 16.64C178.51 16.09 178.29 15.43 178.29 14.64L181.22 14.64C181.24 15.14 181.45 15.53 181.86 15.8C182.28 16.07 182.8 16.21 183.44 16.21C183.99 16.21 184.45 16.11 184.81 15.9C185.17 15.68 185.36 15.35 185.36 14.92C185.36 14.54 185.19 14.23 184.86 13.98C184.53 13.72 184 13.52 183.27 13.36L182.03 13.08C181.21 12.89 180.54 12.65 180.02 12.37C179.51 12.09 179.12 11.75 178.87 11.35C178.63 10.94 178.51 10.45 178.51 9.88C178.51 9.15 178.7 8.53 179.11 8.02C179.52 7.51 180.08 7.13 180.8 6.87C181.53 6.61 182.37 6.49 183.35 6.49C184.82 6.49 185.97 6.77 186.8 7.33C187.62 7.9 188.05 8.7 188.11 9.78L185.21 9.78L185.21 9.76Z" />
		</g>
		<g id="Group_30">
			<path id="Path_2756" class="shp0" d="M30.42 7.07C29.99 5.75 29.3 4.55 28.41 3.51C27.4 2.39 26.16 1.53 24.76 0.97C23.01 0.29 21.14 -0.04 19.26 0.02L12.87 0.02L12.87 1.64C13.59 2.1 14.24 2.66 14.79 3.3C14.86 3.37 15.1 3.63 15.37 4.02C16.56 4.03 17.09 4.03 17.09 4.03L20.52 4.03C21.12 4.05 21.71 4.14 22.3 4.3C23.04 4.51 23.74 4.85 24.35 5.3C25.07 5.83 25.65 6.53 26.03 7.34C26.52 8.4 26.76 9.57 26.71 10.73C26.73 11.7 26.56 12.65 26.2 13.55C25.89 14.33 25.39 15.04 24.75 15.59C24.09 16.15 23.32 16.57 22.5 16.82C21.56 17.11 20.58 17.26 19.6 17.25L15.61 17.25C15.2 17.8 14.75 18.31 14.25 18.77C13.82 19.15 13.37 19.5 12.88 19.81L12.88 21.3L20.32 21.3C21.73 21.31 23.13 21.06 24.44 20.59C25.71 20.14 26.87 19.45 27.88 18.54C28.87 17.64 29.67 16.53 30.22 15.31C30.81 13.97 31.1 12.51 31.08 11.05C31.05 9.68 30.84 8.34 30.42 7.07Z" />
			<path id="Path_2757" class="shp0" d="M45.18 7.07C44.76 5.76 44.07 4.55 43.16 3.51C42.16 2.39 40.91 1.52 39.51 0.97C37.76 0.29 35.89 -0.04 34.02 0.02L27.63 0.02L27.63 1.64C28.35 2.1 28.99 2.66 29.55 3.3C29.62 3.37 29.85 3.63 30.13 4.02C31.32 4.03 31.84 4.03 31.84 4.03L35.27 4.03C35.86 4.05 36.46 4.14 37.05 4.3C37.78 4.51 38.48 4.85 39.1 5.3C39.81 5.83 40.39 6.53 40.78 7.34C41.27 8.4 41.51 9.57 41.46 10.73C41.48 11.7 41.31 12.65 40.95 13.55C40.64 14.33 40.14 15.04 39.49 15.59C38.83 16.15 38.07 16.57 37.24 16.82C36.3 17.11 35.32 17.26 34.34 17.25L30.35 17.25C29.95 17.8 29.49 18.31 28.99 18.77C28.57 19.15 28.11 19.5 27.63 19.81L27.63 21.3L35.07 21.3C36.48 21.31 37.88 21.06 39.19 20.59C40.46 20.14 41.62 19.45 42.62 18.54C43.61 17.64 44.42 16.53 44.96 15.31C45.54 13.97 45.84 12.51 45.82 11.05C45.82 9.68 45.6 8.34 45.18 7.07Z" />
			<path id="Path_2758" class="shp0" d="M59.49 7.07C59.06 5.76 58.37 4.55 57.46 3.51C56.46 2.39 55.21 1.53 53.81 0.97C52.07 0.29 50.19 -0.04 48.32 0.02L41.93 0.02L41.93 1.64C42.65 2.1 43.29 2.66 43.85 3.3C43.92 3.37 44.15 3.63 44.43 4.02C45.62 4.03 46.14 4.03 46.14 4.03L49.57 4.03C50.17 4.05 50.76 4.14 51.35 4.3C52.08 4.51 52.78 4.85 53.4 5.3C54.12 5.83 54.69 6.53 55.08 7.34C55.58 8.4 55.81 9.57 55.77 10.73C55.79 11.7 55.62 12.65 55.26 13.55C54.95 14.33 54.45 15.04 53.8 15.59C53.14 16.15 52.38 16.57 51.56 16.82C50.61 17.11 49.64 17.26 48.65 17.25L44.66 17.25C44.26 17.8 43.8 18.31 43.3 18.77C42.88 19.15 42.42 19.5 41.94 19.81L41.94 21.3L49.38 21.3C50.79 21.31 52.19 21.06 53.5 20.59C54.77 20.14 55.93 19.45 56.93 18.54C57.93 17.64 58.73 16.53 59.27 15.31C59.85 13.97 60.15 12.51 60.13 11.05C60.13 9.68 59.91 8.34 59.49 7.07Z" />
			<g id="Group_29">
				<path id="Path_2761" class="shp0" d="M3.33 20.59C2.36 20.16 1.55 19.46 0.96 18.59C0.36 17.65 0.03 16.57 0 15.45L4.07 15.45C4.11 15.84 4.24 16.21 4.45 16.55C4.64 16.84 4.9 17.08 5.21 17.24C5.54 17.4 5.91 17.48 6.28 17.47C6.92 17.51 7.54 17.28 8.02 16.85C8.45 16.37 8.67 15.74 8.63 15.09L8.63 14.6C8.67 13.96 8.5 13.31 8.13 12.77C7.79 12.33 7.26 12.09 6.71 12.12L4.94 12.12L4.94 8.33L6.71 8.33C7.17 8.35 7.61 8.15 7.87 7.77C8.18 7.3 8.32 6.75 8.29 6.18L8.29 5.83C8.32 5.3 8.16 4.77 7.83 4.35C7.51 3.99 7.04 3.79 6.55 3.82C6.21 3.82 5.87 3.92 5.58 4.1C5.27 4.29 5.01 4.57 4.84 4.89C4.62 5.27 4.48 5.69 4.4 6.14L0.34 6.14C0.43 4.97 0.78 3.85 1.37 2.85C1.91 1.95 2.68 1.23 3.61 0.74C4.57 0.25 5.62 0 6.7 0.02C8.26 -0.09 9.8 0.42 11 1.43C12.06 2.48 12.62 3.95 12.52 5.43L12.52 6.06C12.54 6.95 12.29 7.84 11.79 8.58C11.28 9.31 10.54 9.88 9.7 10.19C10.66 10.38 11.5 10.95 12.04 11.77C12.63 12.71 12.91 13.8 12.87 14.91L12.87 15.54C12.9 16.62 12.66 17.69 12.16 18.65C11.67 19.5 10.95 20.19 10.05 20.61C9.01 21.08 7.86 21.32 6.72 21.29C5.55 21.3 4.4 21.06 3.33 20.59Z" />
			</g>
		</g>
		<g id="Layer">
			<path id="Layer" fill-rule="evenodd" class="shp0" d="M7.33 38.15C8.07 38.88 8.45 40.03 8.45 41.59C8.45 44.62 7 46.14 4.08 46.14L1.06 46.14L1.06 37.05L4.1 37.05C5.5 37.05 6.58 37.41 7.33 38.15ZM5.91 45.02C6.46 44.77 6.87 44.38 7.15 43.82C7.42 43.27 7.55 42.53 7.55 41.59C7.55 40.67 7.42 39.94 7.16 39.39C6.89 38.83 6.48 38.43 5.93 38.18C5.38 37.93 4.65 37.81 3.76 37.81L1.96 37.81L1.96 45.37L3.8 45.37C4.65 45.37 5.36 45.26 5.91 45.02Z" />
			<path id="Layer" fill-rule="evenodd" class="shp0" d="M15.38 37.05L18.98 46.14L18.02 46.14L16.9 43.33L12.74 43.33L11.65 46.14L10.68 46.14L14.38 37.05L15.38 37.05ZM13.03 42.57L16.6 42.57L14.85 37.96L14.82 37.96L13.03 42.57Z" />
			<path id="Layer" class="shp0" d="M27.13 37.05L27.13 37.81L23.94 37.81L23.94 46.14L23.05 46.14L23.05 37.81L19.87 37.81L19.87 37.05L27.13 37.05Z" />
			<path id="Layer" fill-rule="evenodd" class="shp0" d="M32.72 37.05L36.32 46.14L35.35 46.14L34.24 43.33L30.08 43.33L28.98 46.14L28.02 46.14L31.71 37.05L32.72 37.05ZM30.36 42.57L33.94 42.57L32.19 37.96L32.16 37.96L30.36 42.57Z" />
			<path id="Layer" class="shp0" d="M48.64 42.63C48.44 42.99 48.16 43.28 47.81 43.48C47.46 43.69 47.08 43.8 46.67 43.8C46.25 43.8 45.87 43.7 45.51 43.48C45.17 43.28 44.88 42.99 44.68 42.63C44.48 42.27 44.38 41.88 44.38 41.44C44.38 41.03 44.48 40.65 44.67 40.29C44.87 39.93 45.15 39.64 45.5 39.42C45.85 39.21 46.23 39.1 46.67 39.1C47.09 39.1 47.48 39.21 47.83 39.42C48.18 39.63 48.45 39.92 48.66 40.28C48.86 40.64 48.97 41.03 48.97 41.45C48.95 41.87 48.84 42.27 48.64 42.63Z" />
			<path id="Layer" fill-rule="evenodd" class="shp0" d="M64.29 38.15C65.03 38.88 65.41 40.03 65.41 41.59C65.41 44.62 63.96 46.14 61.05 46.14L58.01 46.14L58.01 37.05L61.06 37.05C62.46 37.05 63.54 37.41 64.29 38.15ZM62.87 45.02C63.42 44.77 63.83 44.38 64.11 43.82C64.38 43.27 64.51 42.53 64.51 41.59C64.51 40.67 64.38 39.94 64.12 39.39C63.85 38.83 63.45 38.43 62.89 38.18C62.34 37.93 61.61 37.81 60.72 37.81L58.91 37.81L58.91 45.37L60.75 45.37C61.61 45.37 62.31 45.26 62.87 45.02Z" />
			<path id="Layer" class="shp0" d="M69.62 37.05L69.62 46.14L68.72 46.14L68.72 37.05L69.62 37.05Z" />
			<path id="Layer" class="shp0" d="M79.05 37.17C79.59 37.37 80.04 37.69 80.39 38.1C80.74 38.51 80.97 39.02 81.08 39.61L80.21 39.61C80.16 39.25 80.01 38.92 79.75 38.61C79.49 38.3 79.15 38.04 78.71 37.86C78.28 37.68 77.8 37.59 77.26 37.59C76.49 37.59 75.85 37.78 75.33 38.16C74.81 38.55 74.43 39.04 74.19 39.65C73.94 40.26 73.82 40.9 73.82 41.59C73.82 42.3 73.94 42.95 74.19 43.56C74.43 44.16 74.82 44.66 75.33 45.04C75.85 45.41 76.49 45.6 77.26 45.6C77.88 45.6 78.44 45.48 78.92 45.22C79.4 44.97 79.77 44.6 80.04 44.11C80.3 43.63 80.43 43.04 80.43 42.38L77.45 42.38L77.45 41.61L81.23 41.61L81.23 42.3C81.23 43.2 81.05 43.95 80.7 44.57C80.35 45.17 79.87 45.62 79.27 45.91C78.68 46.2 78 46.34 77.26 46.34C76.34 46.34 75.56 46.13 74.9 45.7C74.25 45.28 73.76 44.71 73.42 43.98C73.09 43.26 72.92 42.47 72.92 41.59C72.92 40.73 73.08 39.95 73.41 39.23C73.74 38.5 74.23 37.93 74.88 37.5C75.54 37.06 76.33 36.85 77.26 36.85C77.92 36.85 78.51 36.95 79.05 37.17Z" />
			<path id="Layer" class="shp0" d="M85.42 37.05L85.42 46.14L84.53 46.14L84.53 37.05L85.42 37.05Z" />
			<path id="Layer" class="shp0" d="M95.44 37.05L95.44 37.81L92.26 37.81L92.26 46.14L91.36 46.14L91.36 37.81L88.18 37.81L88.18 37.05L95.44 37.05Z" />
			<path id="Layer" fill-rule="evenodd" class="shp0" d="M101.02 37.05L104.62 46.14L103.66 46.14L102.54 43.33L98.38 43.33L97.29 46.14L96.32 46.14L100.02 37.05L101.02 37.05ZM98.68 42.57L102.25 42.57L100.5 37.96L100.47 37.96L98.68 42.57Z" />
			<path id="Layer" class="shp0" d="M108.19 37.05L108.19 45.37L113.31 45.37L113.31 46.14L107.29 46.14L107.29 37.05L108.19 37.05Z" />
			<path id="Layer" class="shp0" d="M125.7 42.63C125.49 42.99 125.22 43.28 124.87 43.48C124.52 43.69 124.14 43.8 123.73 43.8C123.31 43.8 122.93 43.7 122.57 43.48C122.22 43.28 121.94 42.99 121.74 42.63C121.54 42.27 121.44 41.88 121.44 41.44C121.44 41.03 121.53 40.65 121.73 40.29C121.93 39.93 122.2 39.64 122.55 39.42C122.9 39.21 123.29 39.1 123.73 39.1C124.15 39.1 124.54 39.21 124.89 39.42C125.24 39.63 125.51 39.92 125.72 40.28C125.92 40.64 126.02 41.03 126.02 41.45C126.01 41.87 125.91 42.27 125.7 42.63Z" />
			<path id="Layer" fill-rule="evenodd" class="shp0" d="M141.35 38.15C142.09 38.88 142.47 40.03 142.47 41.59C142.47 44.62 141.02 46.14 138.1 46.14L135.07 46.14L135.07 37.05L138.11 37.05C139.52 37.05 140.6 37.41 141.35 38.15ZM139.93 45.02C140.48 44.77 140.89 44.38 141.17 43.82C141.44 43.27 141.57 42.53 141.57 41.59C141.57 40.67 141.44 39.94 141.18 39.39C140.91 38.83 140.51 38.43 139.95 38.18C139.4 37.93 138.67 37.81 137.78 37.81L135.97 37.81L135.97 45.37L137.81 45.37C138.67 45.37 139.37 45.26 139.93 45.02Z" />
			<path id="Layer" class="shp0" d="M152.06 37.05L152.06 37.81L146.62 37.81L146.62 41.06L151.72 41.06L151.72 41.82L146.62 41.82L146.62 45.37L152.12 45.37L152.12 46.14L145.71 46.14L145.71 37.05L152.06 37.05L152.06 37.05Z" />
			<path id="Layer" class="shp0" d="M160.7 39.35C160.64 38.77 160.39 38.33 159.93 38.04C159.48 37.75 158.89 37.61 158.18 37.61C157.5 37.61 156.95 37.75 156.53 38.04C156.1 38.33 155.89 38.78 155.89 39.4C155.89 39.7 155.96 39.94 156.08 40.13C156.22 40.32 156.39 40.46 156.6 40.56C156.82 40.66 157.1 40.75 157.44 40.83L159.43 41.3C160.03 41.44 160.5 41.62 160.86 41.84C161.22 42.06 161.48 42.32 161.64 42.63C161.81 42.94 161.9 43.31 161.9 43.73C161.9 44.11 161.8 44.5 161.62 44.89C161.43 45.29 161.08 45.63 160.56 45.91C160.04 46.19 159.32 46.34 158.39 46.34C157.62 46.34 156.96 46.24 156.41 46.03C155.87 45.83 155.45 45.52 155.17 45.12C154.88 44.73 154.73 44.24 154.73 43.66L154.73 43.57L155.6 43.57L155.6 43.63C155.6 44.29 155.85 44.78 156.34 45.09C156.83 45.4 157.52 45.56 158.39 45.56C159.17 45.56 159.8 45.41 160.28 45.11C160.76 44.81 161.01 44.36 161.01 43.74C161.01 43.31 160.86 42.97 160.55 42.71C160.25 42.46 159.79 42.25 159.17 42.11L157.26 41.65C156.72 41.52 156.29 41.36 155.97 41.17C155.65 40.98 155.41 40.75 155.25 40.46C155.1 40.18 155.02 39.83 155.02 39.41C155.02 39.02 155.13 38.62 155.33 38.24C155.53 37.84 155.87 37.52 156.34 37.25C156.81 36.99 157.43 36.85 158.17 36.85C158.82 36.85 159.4 36.94 159.9 37.14C160.4 37.34 160.8 37.62 161.1 37.99C161.4 38.37 161.56 38.82 161.58 39.35L160.7 39.35L160.7 39.35Z" />
			<path id="Layer" class="shp0" d="M166.07 37.05L166.07 46.14L165.17 46.14L165.17 37.05L166.07 37.05Z" />
			<path id="Layer" class="shp0" d="M175.51 37.17C176.05 37.37 176.49 37.69 176.84 38.1C177.19 38.51 177.43 39.02 177.53 39.61L176.66 39.61C176.61 39.25 176.46 38.92 176.21 38.61C175.94 38.3 175.6 38.04 175.17 37.86C174.73 37.68 174.25 37.59 173.71 37.59C172.95 37.59 172.3 37.78 171.78 38.16C171.26 38.55 170.89 39.04 170.64 39.65C170.4 40.26 170.27 40.9 170.27 41.59C170.27 42.3 170.4 42.95 170.64 43.56C170.89 44.16 171.27 44.66 171.78 45.04C172.3 45.41 172.95 45.6 173.71 45.6C174.34 45.6 174.89 45.48 175.38 45.22C175.86 44.97 176.23 44.6 176.49 44.11C176.76 43.63 176.89 43.04 176.89 42.38L173.9 42.38L173.9 41.61L177.68 41.61L177.68 42.3C177.68 43.2 177.5 43.95 177.15 44.57C176.8 45.17 176.32 45.62 175.73 45.91C175.13 46.2 174.46 46.34 173.71 46.34C172.8 46.34 172.01 46.13 171.36 45.7C170.71 45.28 170.22 44.71 169.88 43.98C169.54 43.26 169.37 42.47 169.37 41.59C169.37 40.73 169.53 39.95 169.87 39.23C170.2 38.5 170.69 37.93 171.34 37.5C171.99 37.06 172.79 36.85 173.71 36.85C174.37 36.85 174.97 36.95 175.51 37.17Z" />
			<path id="Layer" class="shp0" d="M181.88 37.05L187.2 44.69L187.23 44.69L187.23 37.05L188.12 37.05L188.12 46.14L187.13 46.14L181.82 38.49L181.8 38.49L181.8 46.14L180.9 46.14L180.9 37.05L181.88 37.05Z" />
		</g>
		<g id="Line_22">
			<path id="Layer" class="shp0" d="M189.53 29.27L0.47 29.27C0.34 29.27 0.24 29.17 0.24 29.04C0.24 28.9 0.34 28.8 0.47 28.8L189.53 28.8C189.66 28.8 189.76 28.9 189.76 29.04C189.76 29.17 189.66 29.27 189.53 29.27Z" />
		</g>
	</g>
</svg>