<svg version="1.2" baseProfile="tiny-ps" xmlns="http://www.w3.org/2000/svg" viewBox="0 0 190 30" width="190" height="30">
	<title>homelogo-svg</title>
	<style>
		tspan { white-space:pre }
		.shp0 { fill: #ffffff } 
	</style>
	<g id="Layer">
		<g id="Layer">
			<path id="Layer" class="shp0" d="M82.48 10.66C82.41 10.26 82.23 9.89 81.95 9.57C81.65 9.25 81.28 8.99 80.83 8.8C80.38 8.61 79.87 8.52 79.32 8.52C78.45 8.52 77.71 8.72 77.12 9.15C76.51 9.56 76.07 10.15 75.76 10.9C75.47 11.65 75.32 12.52 75.32 13.54C75.32 14.49 75.47 15.33 75.76 16.07C76.06 16.8 76.51 17.38 77.12 17.8C77.74 18.23 78.48 18.44 79.37 18.44C80.29 18.44 81.03 18.21 81.59 17.74C82.13 17.27 82.48 16.59 82.63 15.7L85.93 15.7C85.83 16.83 85.49 17.8 84.91 18.65C84.34 19.5 83.56 20.15 82.6 20.61C81.63 21.07 80.54 21.3 79.31 21.3C77.79 21.3 76.47 20.96 75.37 20.3C74.26 19.63 73.41 18.71 72.81 17.53C72.22 16.36 71.93 15.03 71.93 13.55C71.93 12.06 72.19 10.71 72.79 9.51C73.38 8.32 74.23 7.38 75.35 6.69C76.46 6.01 77.78 5.67 79.28 5.67C80.42 5.67 81.46 5.87 82.41 6.26C83.35 6.66 84.12 7.24 84.72 7.99C85.31 8.74 85.66 9.64 85.78 10.66L82.48 10.66L82.48 10.66Z" />
			<path id="Layer" class="shp0" d="M91.33 11.33L91.38 11.33C91.73 10.75 92.19 10.29 92.77 9.97C93.35 9.64 93.97 9.47 94.62 9.47C95.95 9.47 96.95 9.83 97.6 10.58C98.25 11.32 98.58 12.44 98.58 13.94L98.58 20.94L95.49 20.94L95.49 14.81C95.49 13.77 95.33 13.03 95 12.58C94.68 12.14 94.17 11.91 93.49 11.91C92.78 11.91 92.24 12.14 91.88 12.59C91.52 13.04 91.33 13.78 91.33 14.81L91.33 20.94L88.24 20.94L88.24 5.51L91.33 5.51L91.33 11.33L91.33 11.33Z" />
			<path id="Layer" fill-rule="evenodd" class="shp0" d="M108.01 13.62C108.01 12.89 107.87 12.35 107.58 12.01C107.3 11.68 106.81 11.51 106.12 11.51C105.51 11.51 105.04 11.62 104.73 11.83C104.41 12.04 104.22 12.38 104.16 12.84L101.1 12.84C101.15 11.74 101.64 10.91 102.55 10.32C103.47 9.74 104.71 9.45 106.27 9.45C107.93 9.45 109.16 9.81 109.94 10.51C110.71 11.22 111.1 12.32 111.1 13.84L111.1 20.95L108.32 20.95L108.15 19.51L108.1 19.51C107.86 20.01 107.44 20.43 106.85 20.76C106.27 21.09 105.53 21.25 104.65 21.25C103.87 21.25 103.19 21.11 102.6 20.84C102.01 20.57 101.56 20.16 101.24 19.63C100.92 19.09 100.76 18.45 100.76 17.7C100.76 16.45 101.24 15.53 102.2 14.94C103.17 14.35 104.55 14.05 106.34 14.05L108.02 14.05L108.02 13.62L108.01 13.62ZM106.75 15.87C105.8 15.87 105.09 15.99 104.59 16.24C104.1 16.48 103.86 16.89 103.86 17.47C103.86 17.97 104.01 18.35 104.32 18.6C104.63 18.86 105.06 18.98 105.6 18.98C106.06 18.98 106.48 18.89 106.84 18.7C107.21 18.51 107.5 18.24 107.7 17.89C107.9 17.53 108.01 17.11 108.01 16.6L108.01 15.87L106.75 15.87Z" />
			<path id="Layer" class="shp0" d="M124.8 9.95C125.37 9.63 126.02 9.47 126.75 9.47C128 9.47 128.95 9.81 129.63 10.52C130.3 11.22 130.63 12.19 130.63 13.45L130.63 20.95L127.54 20.95L127.54 14.82C127.54 13.78 127.39 13.04 127.09 12.59C126.8 12.15 126.35 11.92 125.73 11.92C125.09 11.92 124.61 12.15 124.28 12.6C123.94 13.05 123.77 13.79 123.77 14.82L123.77 20.95L120.68 20.95L120.68 14.82C120.68 13.78 120.53 13.04 120.24 12.59C119.95 12.15 119.49 11.92 118.88 11.92C118.24 11.92 117.75 12.15 117.42 12.6C117.09 13.05 116.92 13.79 116.92 14.82L116.92 20.95L113.83 20.95L113.83 9.78L116.74 9.78L116.74 11.29L116.79 11.29C117.61 10.08 118.73 9.48 120.13 9.48C120.92 9.48 121.58 9.64 122.11 9.97C122.64 10.29 123.05 10.75 123.31 11.34C123.72 10.73 124.21 10.27 124.8 9.95Z" />
			<path id="Layer" fill-rule="evenodd" class="shp0" d="M143.87 18.37C143.5 19.24 142.95 19.94 142.24 20.47C141.52 20.99 140.66 21.25 139.65 21.25C138.97 21.25 138.35 21.1 137.78 20.81C137.22 20.52 136.75 20.11 136.39 19.57L136.35 19.57L136.35 24.89L133.26 24.89L133.26 9.78L136.21 9.78L136.21 11.21L136.23 11.21C136.96 10.05 138.05 9.48 139.49 9.48C140.55 9.48 141.45 9.74 142.19 10.27C142.93 10.79 143.48 11.51 143.85 12.42C144.22 13.33 144.41 14.35 144.41 15.49C144.42 16.54 144.24 17.49 143.87 18.37ZM136.9 17.95C137.34 18.59 137.97 18.92 138.81 18.92C139.66 18.92 140.31 18.6 140.71 17.96C141.13 17.33 141.34 16.47 141.34 15.4C141.34 14.78 141.25 14.2 141.09 13.66C140.93 13.12 140.65 12.67 140.27 12.33C139.89 12 139.39 11.82 138.78 11.82C137.98 11.82 137.36 12.13 136.91 12.76C136.47 13.39 136.25 14.27 136.25 15.41C136.25 16.44 136.47 17.3 136.9 17.95Z" />
			<path id="Layer" class="shp0" d="M149.81 7.35C149.66 7.62 149.44 7.81 149.16 7.97C148.89 8.12 148.58 8.2 148.23 8.2C147.88 8.2 147.57 8.12 147.29 7.97C147.02 7.82 146.8 7.62 146.65 7.35C146.5 7.09 146.42 6.8 146.42 6.47C146.42 6.14 146.5 5.84 146.65 5.58C146.8 5.32 147.02 5.11 147.29 4.96C147.57 4.81 147.88 4.74 148.23 4.74C148.58 4.74 148.89 4.81 149.16 4.96C149.44 5.11 149.66 5.32 149.81 5.58C149.96 5.85 150.03 6.14 150.03 6.47C150.03 6.8 149.96 7.09 149.81 7.35ZM149.77 9.78L149.77 20.95L146.68 20.95L146.68 9.78L149.77 9.78Z" />
			<path id="Layer" fill-rule="evenodd" class="shp0" d="M162.8 18.47C162.31 19.36 161.65 20.04 160.79 20.53C159.94 21.01 158.95 21.25 157.83 21.25C156.69 21.25 155.69 21.01 154.84 20.52C153.99 20.03 153.32 19.35 152.86 18.45C152.4 17.57 152.16 16.54 152.16 15.37C152.16 14.19 152.4 13.15 152.86 12.27C153.32 11.38 153.99 10.7 154.84 10.2C155.69 9.7 156.69 9.47 157.83 9.47C158.98 9.47 159.98 9.71 160.83 10.2C161.68 10.69 162.34 11.38 162.8 12.28C163.27 13.17 163.5 14.2 163.5 15.37C163.51 16.55 163.28 17.59 162.8 18.47ZM159.76 17.98C160.2 17.36 160.42 16.49 160.42 15.37C160.42 14.34 160.22 13.48 159.82 12.8C159.41 12.13 158.75 11.8 157.81 11.8C157 11.8 156.37 12.11 155.92 12.73C155.47 13.35 155.25 14.22 155.25 15.37C155.25 16.51 155.47 17.38 155.91 17.99C156.36 18.6 157 18.91 157.84 18.91C158.67 18.91 159.32 18.6 159.76 17.98Z" />
			<path id="Layer" class="shp0" d="M176.14 20.95L173.05 20.95L173.05 14.82C173.05 13.78 172.89 13.04 172.56 12.59C172.24 12.15 171.73 11.92 171.05 11.92C170.34 11.92 169.8 12.15 169.44 12.6C169.08 13.05 168.89 13.79 168.89 14.82L168.89 20.95L165.8 20.95L165.8 9.78L168.76 9.78L168.76 11.34L168.81 11.34C169.17 10.76 169.65 10.3 170.23 9.97C170.82 9.65 171.44 9.48 172.12 9.48C173.47 9.48 174.47 9.84 175.14 10.59C175.81 11.33 176.14 12.45 176.14 13.95L176.14 20.95L176.14 20.95Z" />
			<path id="Layer" class="shp0" d="M185.21 12.76C185.18 12.32 185.01 12.01 184.69 11.82C184.37 11.62 183.9 11.53 183.3 11.53C182.73 11.53 182.31 11.62 182.02 11.8C181.74 11.98 181.6 12.23 181.6 12.57C181.6 12.83 181.67 13.04 181.83 13.21C181.99 13.38 182.23 13.52 182.54 13.63C182.85 13.74 183.28 13.87 183.82 13.98L185.08 14.26C186.22 14.52 187.07 14.92 187.62 15.46C188.17 16.01 188.44 16.71 188.44 17.57C188.44 18.43 188.21 19.15 187.76 19.7C187.31 20.26 186.7 20.66 185.94 20.91C185.19 21.15 184.35 21.27 183.42 21.27C182.42 21.27 181.54 21.13 180.76 20.86C180 20.59 179.39 20.18 178.95 19.64C178.51 19.09 178.29 18.43 178.29 17.64L181.22 17.64C181.24 18.14 181.45 18.53 181.86 18.8C182.28 19.07 182.8 19.21 183.44 19.21C183.99 19.21 184.45 19.11 184.81 18.9C185.17 18.68 185.36 18.35 185.36 17.92C185.36 17.54 185.19 17.23 184.86 16.98C184.53 16.72 184 16.52 183.27 16.36L182.03 16.08C181.21 15.89 180.54 15.65 180.02 15.37C179.51 15.09 179.12 14.75 178.87 14.35C178.63 13.94 178.51 13.45 178.51 12.88C178.51 12.15 178.7 11.53 179.11 11.02C179.52 10.51 180.08 10.13 180.8 9.87C181.53 9.61 182.37 9.49 183.35 9.49C184.82 9.49 185.97 9.77 186.8 10.33C187.62 10.9 188.05 11.7 188.11 12.78L185.21 12.78L185.21 12.76Z" />
		</g>
		<g id="Group_30">
			<path id="Path_2756" class="shp0" d="M30.42 10.07C29.99 8.75 29.3 7.55 28.41 6.51C27.4 5.39 26.16 4.53 24.76 3.97C23.01 3.29 21.14 2.96 19.26 3.02L12.87 3.02L12.87 4.64C13.59 5.1 14.24 5.66 14.79 6.3C14.86 6.37 15.1 6.63 15.37 7.02C16.56 7.03 17.09 7.03 17.09 7.03L20.52 7.03C21.12 7.05 21.71 7.14 22.3 7.3C23.04 7.51 23.74 7.85 24.35 8.3C25.07 8.83 25.65 9.53 26.03 10.34C26.52 11.4 26.76 12.57 26.71 13.73C26.73 14.7 26.56 15.65 26.2 16.55C25.89 17.33 25.39 18.04 24.75 18.59C24.09 19.15 23.32 19.57 22.5 19.82C21.56 20.11 20.58 20.26 19.6 20.25L15.61 20.25C15.2 20.8 14.75 21.31 14.25 21.77C13.82 22.15 13.37 22.5 12.88 22.81L12.88 24.3L20.32 24.3C21.73 24.31 23.13 24.06 24.44 23.59C25.71 23.14 26.87 22.45 27.88 21.54C28.87 20.64 29.67 19.53 30.22 18.31C30.81 16.97 31.1 15.51 31.08 14.05C31.05 12.68 30.84 11.34 30.42 10.07Z" />
			<path id="Path_2757" class="shp0" d="M45.18 10.07C44.76 8.76 44.07 7.55 43.16 6.51C42.16 5.39 40.91 4.52 39.51 3.97C37.76 3.29 35.89 2.96 34.02 3.02L27.63 3.02L27.63 4.64C28.35 5.1 28.99 5.66 29.55 6.3C29.62 6.37 29.85 6.63 30.13 7.02C31.32 7.03 31.84 7.03 31.84 7.03L35.27 7.03C35.86 7.05 36.46 7.14 37.05 7.3C37.78 7.51 38.48 7.85 39.1 8.3C39.81 8.83 40.39 9.53 40.78 10.34C41.27 11.4 41.51 12.57 41.46 13.73C41.48 14.7 41.31 15.65 40.95 16.55C40.64 17.33 40.14 18.04 39.49 18.59C38.83 19.15 38.07 19.57 37.24 19.82C36.3 20.11 35.32 20.26 34.34 20.25L30.35 20.25C29.95 20.8 29.49 21.31 28.99 21.77C28.57 22.15 28.11 22.5 27.63 22.81L27.63 24.3L35.07 24.3C36.48 24.31 37.88 24.06 39.19 23.59C40.46 23.14 41.62 22.45 42.62 21.54C43.61 20.64 44.42 19.53 44.96 18.31C45.54 16.97 45.84 15.51 45.82 14.05C45.82 12.68 45.6 11.34 45.18 10.07Z" />
			<path id="Path_2758" class="shp0" d="M59.49 10.07C59.06 8.76 58.37 7.55 57.46 6.51C56.46 5.39 55.21 4.53 53.81 3.97C52.07 3.29 50.19 2.96 48.32 3.02L41.93 3.02L41.93 4.64C42.65 5.1 43.29 5.66 43.85 6.3C43.92 6.37 44.15 6.63 44.43 7.02C45.62 7.03 46.14 7.03 46.14 7.03L49.57 7.03C50.17 7.05 50.76 7.14 51.35 7.3C52.08 7.51 52.78 7.85 53.4 8.3C54.12 8.83 54.69 9.53 55.08 10.34C55.58 11.4 55.81 12.57 55.77 13.73C55.79 14.7 55.62 15.65 55.26 16.55C54.95 17.33 54.45 18.04 53.8 18.59C53.14 19.15 52.38 19.57 51.56 19.82C50.61 20.11 49.64 20.26 48.65 20.25L44.66 20.25C44.26 20.8 43.8 21.31 43.3 21.77C42.88 22.15 42.42 22.5 41.94 22.81L41.94 24.3L49.38 24.3C50.79 24.31 52.19 24.06 53.5 23.59C54.77 23.14 55.93 22.45 56.93 21.54C57.93 20.64 58.73 19.53 59.27 18.31C59.85 16.97 60.15 15.51 60.13 14.05C60.13 12.68 59.91 11.34 59.49 10.07Z" />
			<g id="Group_29">
				<path id="Path_2761" class="shp0" d="M3.33 23.59C2.36 23.16 1.55 22.46 0.96 21.59C0.36 20.65 0.03 19.57 0 18.45L4.07 18.45C4.11 18.84 4.24 19.21 4.45 19.55C4.64 19.84 4.9 20.08 5.21 20.24C5.54 20.4 5.91 20.48 6.28 20.47C6.92 20.51 7.54 20.28 8.02 19.85C8.45 19.37 8.67 18.74 8.63 18.09L8.63 17.6C8.67 16.96 8.5 16.31 8.13 15.77C7.79 15.33 7.26 15.09 6.71 15.12L4.94 15.12L4.94 11.33L6.71 11.33C7.17 11.35 7.61 11.15 7.87 10.77C8.18 10.3 8.32 9.75 8.29 9.18L8.29 8.83C8.32 8.3 8.16 7.77 7.83 7.35C7.51 6.99 7.04 6.79 6.55 6.82C6.21 6.82 5.87 6.92 5.58 7.1C5.27 7.29 5.01 7.57 4.84 7.89C4.62 8.27 4.48 8.69 4.4 9.14L0.34 9.14C0.43 7.97 0.78 6.85 1.37 5.85C1.91 4.95 2.68 4.23 3.61 3.74C4.57 3.25 5.62 3 6.7 3.02C8.26 2.91 9.8 3.42 11 4.43C12.06 5.48 12.62 6.95 12.52 8.43L12.52 9.06C12.54 9.95 12.29 10.84 11.79 11.58C11.28 12.31 10.54 12.88 9.7 13.19C10.66 13.38 11.5 13.95 12.04 14.77C12.63 15.71 12.91 16.8 12.87 17.91L12.87 18.54C12.9 19.62 12.66 20.69 12.16 21.65C11.67 22.5 10.95 23.19 10.05 23.61C9.01 24.08 7.86 24.32 6.72 24.29C5.55 24.3 4.4 24.06 3.33 23.59Z" />
			</g>
		</g>
	</g>
</svg>