<?xml version="1.0" encoding="UTF-8"?>
<svg id="Layer_1" data-name="Layer 1" xmlns="http://www.w3.org/2000/svg" viewBox="0 0 1937 637.47">
  <defs>
    <style>
      .cls-1 {
        letter-spacing: 0em;
      }

      .cls-2 {
        letter-spacing: 0em;
      }

      .cls-3 {
        font-family: JUSTSans-Bd, 'JUST Sans';
        font-size: 65.35px;
      }

      .cls-3, .cls-4 {
        fill: #fff;
      }

      .cls-5 {
        letter-spacing: 0em;
      }

      .cls-6 {
        letter-spacing: 0em;
      }

      .cls-7 {
        letter-spacing: 0em;
      }

      .cls-8 {
        fill: #cacaca;
        opacity: 0;
      }

      .cls-9 {
        letter-spacing: 0em;
      }

      .cls-10 {
        letter-spacing: -.01em;
      }
    </style>
  </defs>
  <rect class="cls-8" width="1937" height="637.47"/>
  <path class="cls-4" d="m196.82,431.29c15.28-10.89,23.35-25.25,23.4-43.58.13-51.8.04-103.61.06-155.41,0-2.02-.14-4.01-.71-5.95-1.45-4.96-5.21-7.96-10.48-8.39-5.81-.47-10.23,1.9-12.47,6.68-1.19,2.54-.79,5.26-.79,7.91-.03,49.8-.04,99.59.01,149.39,0,4.7-.17,9.33-1.49,13.85-2.54,8.69-8.26,14.76-16.7,17.39-16.89,5.27-34.14-7.71-34.23-26-.12-23.83-.04-47.65-.02-71.48,0-2.73-.24-5.27-2.13-7.51-3.43-4.07-9.06-5.99-13.64-4.44-5.1,1.73-8.69,6.96-8.7,13.12-.05,24.09-.35,48.2.1,72.28.3,16.37,7.24,29.8,20.73,39.52,6.83,4.92,14.59,8.14,22,12.01,22.75,11.87,45.45,23.82,68.17,35.75,22.26,11.68,44.5,23.38,66.77,35.02,9.51,4.97,19.03,9.33,30.41,6.16,7.19-2.01,13.42-5.25,18.4-10.6,7.03-7.55,10.04-16.68,9.96-27.05-.06-7.59-.08-40.13-.08-42.6,0-44.84,0-89.69,0-134.53,0-1.47.06-2.95-.04-4.42-.45-6.91-6.16-12.05-13.1-11.85-6.53.19-11.35,5.44-11.4,12.42-.02,3.35,0,6.69,0,10.04,0,57.43.01,114.85,0,172.28,0,9.3-8.82,15.29-16.84,11.29-11.05-5.51-21.97-11.29-32.91-17.02-22.62-11.84-45.22-23.73-67.82-35.6-5.39-2.83-10.76-5.68-16.46-8.68Z"/>
  <path class="cls-4" d="m263.81,278.22c0-7.63,0-15.26,0-22.89,0-16.87.03-33.73-.02-50.6-.03-7.81-4.93-13.06-12.04-13.13-7.72-.07-12.47,4.57-12.46,12.4,0,32.93-.08,139.12.03,149.7.1,8.86,9.82,14.38,17.6,10.19,4.87-2.63,6.89-6.83,6.89-12.19,0-24.49,0-48.99,0-73.48Z"/>
  <path class="cls-4" d="m309.78,310.79c0-8.29,0-16.59,0-24.88,0-12.84.09-25.68-.08-38.52-.1-7.62-8.25-12.98-15.22-10.28-6.57,2.55-9.05,6-9.12,13.35-.1,9.63-.02,19.26-.02,28.89,0,30.5-.05,60.99.02,91.49.02,8.51,5.19,14.06,12.63,14.04,7.49-.01,11.78-5.04,11.79-13.9.02-20.06,0-40.13,0-60.19Z"/>
  <path class="cls-4" d="m159.26,203.46c.23,4.41.17,8.85.77,13.21.78,5.66,1.75,11.36,4.23,16.59,2.31,4.87,6.9,7.01,11.02,5.39,5.29-2.07,7.58-6.36,6.07-11.85-.92-3.34-1.99-6.63-2.52-10.07-2.97-19.37.35-37.41,11.17-53.95,7.75-11.84,18.26-20.34,30.95-26.35,4.34-2.05,6.46-6.01,5.67-10.41-.71-3.95-4.16-7.03-8.48-7.22-3.16-.14-5.87,1.34-8.62,2.81-32.71,17.5-48.8,45.19-50.26,81.84Z"/>
  <path class="cls-4" d="m250.66,153.08c-7.4-.75-15.14,1.29-22.29,5.13-12.89,6.93-22.07,17.13-25.83,31.59-.85,3.26.66,6.08,3.06,8.2,2.38,2.1,5.09,3.18,8.47,2.08,5.09-1.65,6.1-6.27,8.04-10.28,7-14.46,20.29-20.5,36.27-17.71,14.21,2.49,24.73,15.43,25.34,30.09.28,6.74,4.09,10.8,9.92,10.58,5.24-.2,8.85-4.59,8.67-10.89-.73-26.3-23.39-49.79-51.66-48.8Z"/>
  <g>
    <path class="cls-4" d="m414.89,475.29v-144.63h48.76c42.56,0,70.04,28.93,70.04,72.31s-27.48,72.31-70.04,72.31h-48.76Zm23.55-20.45h25.21c28.31,0,46.28-19.42,46.28-51.86s-17.97-51.86-46.28-51.86h-25.21v103.72Z"/>
    <path class="cls-4" d="m542.58,341.2c0-8.88,7.02-15.29,16.12-15.29s15.91,6.4,15.91,15.29-7.02,15.08-15.91,15.08-16.12-6.41-16.12-15.08Zm4.34,134.09v-105.37h23.35v105.37h-23.35Z"/>
    <path class="cls-4" d="m586.38,489.54l21.28-6.4c3.93,11.78,13.84,17.35,28.31,17.35,15.91,0,25.62-8.68,25.62-25.41v-21.69h-1.65c-7.23,12.4-18.39,19.42-34.09,19.42-26.24,0-43.39-20.45-43.39-52.27s17.15-52.68,43.39-52.68c15.5,0,26.86,7.03,34.09,19.42h1.65l2.27-17.36h22.11c-1.03,18.8-1.03,36.36-1.03,54.55v51.24c0,25.83-16.94,42.98-48.97,42.98-25,0-43.6-10.33-49.59-29.13Zm75.21-69.22c0-19.21-10.74-32.44-27.89-32.44s-27.89,13.22-27.89,32.64,10.74,32.65,27.89,32.65,27.89-13.43,27.89-32.85Z"/>
    <path class="cls-4" d="m697.95,341.2c0-8.88,7.03-15.29,16.12-15.29s15.91,6.4,15.91,15.29-7.03,15.08-15.91,15.08-16.12-6.41-16.12-15.08Zm4.34,134.09v-105.37h23.35v105.37h-23.35Z"/>
    <path class="cls-4" d="m755.39,444.92v-55.99h-20.45v-19.01h21.9l4.55-29.34h17.35v29.34h29.34v19.01h-29.34v54.96c0,9.92,5.58,14.26,12.81,14.26,4.75,0,8.88-1.03,13.64-3.92l6.41,16.11c-8.06,5.17-15.5,7.03-24.59,7.03-18.8,0-31.61-10.74-31.61-32.44Z"/>
    <path class="cls-4" d="m909.11,419.5c0,18.59,0,36.98,1.03,55.78h-20.25l-2.07-18.39h-1.65c-6.61,13.22-18.39,20.45-35.12,20.45-20.66,0-34.3-12.4-34.3-31.2,0-20.04,14.46-32.23,43.8-33.88l26.03-1.45v-4.75c0-13.84-10.33-20.04-22.73-20.04-13.22,0-21.9,6.4-25.62,18.39l-20.25-5.99c4.34-19.84,22.31-30.58,45.87-30.58,28.72,0,45.25,13.84,45.25,37.4v14.26Zm-22.52,7.23l-21.28,1.45c-16.53,1.03-26.03,5.37-26.03,16.53,0,8.68,6.61,14.26,17.56,14.26,16.32,0,29.13-13.43,29.75-32.23Z"/>
    <path class="cls-4" d="m926.05,475.29v-144.63h23.35v144.63h-23.35Z"/>
    <path class="cls-4" d="m1008.07,475.29v-144.63h48.76c42.56,0,70.04,28.93,70.04,72.31s-27.48,72.31-70.04,72.31h-48.76Zm23.55-20.45h25.21c28.31,0,46.28-19.42,46.28-51.86s-17.98-51.86-46.28-51.86h-25.21v103.72Z"/>
    <path class="cls-4" d="m1234.31,429.83h-76.24c2.07,18.8,12.81,29.55,28.93,29.55,11.16,0,19.21-4.75,24.59-16.32l20.87,6.2c-7.64,18.6-23.14,28.1-45.66,28.1-32.85,0-51.86-23.97-51.86-54.75s18.8-54.75,51.65-54.75c29.34,0,48.35,20.25,48.35,51.86,0,3.31-.21,7.23-.62,10.12Zm-76.03-16.53h54.55c-1.86-17.97-11.98-27.48-26.24-27.48-15.29,0-25.62,10.12-28.31,27.48Z"/>
    <path class="cls-4" d="m1236.59,475.29l33.88-53.72-31.82-51.65h26.03l22.52,39.46h1.24l22.31-39.46h25.41l-31.82,51.86,33.88,53.51h-26.24l-23.97-40.7h-1.24l-24.59,40.7h-25.62Z"/>
    <path class="cls-4" d="m1358.7,444.92v-55.99h-20.45v-19.01h21.9l4.55-29.34h17.35v29.34h29.34v19.01h-29.34v54.96c0,9.92,5.58,14.26,12.81,14.26,4.75,0,8.88-1.03,13.64-3.92l6.4,16.11c-8.06,5.17-15.5,7.03-24.59,7.03-18.8,0-31.61-10.74-31.61-32.44Z"/>
    <path class="cls-4" d="m1516.96,429.83h-76.24c2.07,18.8,12.81,29.55,28.93,29.55,11.16,0,19.21-4.75,24.59-16.32l20.87,6.2c-7.65,18.6-23.14,28.1-45.66,28.1-32.85,0-51.86-23.97-51.86-54.75s18.8-54.75,51.65-54.75c29.34,0,48.35,20.25,48.35,51.86,0,3.31-.21,7.23-.62,10.12Zm-76.03-16.53h54.54c-1.86-17.97-11.98-27.48-26.24-27.48-15.29,0-25.62,10.12-28.31,27.48Z"/>
    <path class="cls-4" d="m1594.03,368.06v22.73c-3.31-.41-4.96-.41-7.85-.41-16.32,0-33.26,9.71-33.26,39.46v45.45h-23.35v-49.17c0-18.8,0-37.4-1.03-56.2h22.11l2.89,21.07h1.45c5.99-15.29,17.15-23.14,31.4-23.14,2.69,0,4.55,0,7.65.21Z"/>
    <path class="cls-4" d="m1597.96,341.2c0-8.88,7.02-15.29,16.12-15.29s15.91,6.4,15.91,15.29-7.03,15.08-15.91,15.08-16.12-6.41-16.12-15.08Zm4.34,134.09v-105.37h23.35v105.37h-23.35Z"/>
    <path class="cls-4" d="m1655.39,444.92v-55.99h-20.45v-19.01h21.9l4.55-29.34h17.36v29.34h29.34v19.01h-29.34v54.96c0,9.92,5.58,14.26,12.81,14.26,4.75,0,8.88-1.03,13.64-3.92l6.4,16.11c-8.06,5.17-15.5,7.03-24.59,7.03-18.8,0-31.61-10.74-31.61-32.44Z"/>
    <path class="cls-4" d="m1737.51,516.61l15.26-38.43-41.18-108.26h24.88l28.22,81.82h1.25l28.01-81.82h24.25l-55.81,146.69h-24.88Z"/>
  </g>
  <text class="cls-3" transform="translate(413.31 296.91)"><tspan x="0" y="0">Mon</tspan><tspan class="cls-2" x="143" y="0">e</tspan><tspan class="cls-1" x="181.03" y="0">y, M</tspan><tspan class="cls-9" x="314.16" y="0">a</tspan><tspan class="cls-10" x="352.72" y="0">t</tspan><tspan x="382.26" y="0">erial &amp; </tspan><tspan class="cls-6" x="602.3" y="0">C</tspan><tspan x="650.08" y="0">omplian</tspan><tspan class="cls-7" x="910.19" y="0">c</tspan><tspan class="cls-5" x="947.77" y="0">e</tspan></text>
</svg>