<svg xmlns="http://www.w3.org/2000/svg" width="201" height="27" viewBox="0 0 201 27"><defs><style>.a,.b{fill:#fff;}.a{font-size:23px;font-family:JioType-Bold, JioType;font-weight:700;}</style></defs><g transform="translate(-63 -54.71)"><text class="a" transform="translate(138 76.71)"><tspan x="0" y="0">Champions</tspan></text><g transform="translate(63 57.627)"><path class="b" d="M-2195.442,2060.118a10.854,10.854,0,0,0-2.136-3.781,10.29,10.29,0,0,0-3.858-2.705,14.894,14.894,0,0,0-5.81-1.015h-6.763v1.732a9.7,9.7,0,0,1,2.034,1.764c.072.083.316.364.608.767,1.262.01,1.816.011,1.816.011h3.627a7.576,7.576,0,0,1,1.875.292,6.533,6.533,0,0,1,2.167,1.061,6.018,6.018,0,0,1,1.783,2.167,7.872,7.872,0,0,1,.722,3.612,7.828,7.828,0,0,1-.538,3,5.636,5.636,0,0,1-1.537,2.167,6.789,6.789,0,0,1-2.383,1.307,9.985,9.985,0,0,1-3.073.446h-4.223a10.9,10.9,0,0,1-1.442,1.62,10.62,10.62,0,0,1-1.437,1.107v1.576h7.87a12.6,12.6,0,0,0,4.365-.753,10.853,10.853,0,0,0,3.627-2.183,10.353,10.353,0,0,0,2.475-3.443,10.924,10.924,0,0,0,.907-4.534A13.62,13.62,0,0,0-2195.442,2060.118Z" transform="translate(2227.624 -2052.618)"/><path class="b" d="M-1981.441,2060.118a10.85,10.85,0,0,0-2.137-3.781,10.286,10.286,0,0,0-3.858-2.705,14.893,14.893,0,0,0-5.81-1.015h-6.763v1.732a9.707,9.707,0,0,1,2.034,1.764c.072.083.317.364.608.767,1.262.01,1.815.011,1.815.011h3.627a7.576,7.576,0,0,1,1.875.292,6.537,6.537,0,0,1,2.167,1.061,6.02,6.02,0,0,1,1.783,2.167,7.873,7.873,0,0,1,.722,3.612,7.828,7.828,0,0,1-.538,3,5.638,5.638,0,0,1-1.537,2.167,6.787,6.787,0,0,1-2.382,1.307,9.991,9.991,0,0,1-3.074.446h-4.222a10.914,10.914,0,0,1-1.442,1.62,10.635,10.635,0,0,1-1.437,1.107v1.576h7.869a12.6,12.6,0,0,0,4.365-.753,10.858,10.858,0,0,0,3.627-2.183,10.356,10.356,0,0,0,2.475-3.443,10.928,10.928,0,0,0,.907-4.534A13.62,13.62,0,0,0-1981.441,2060.118Z" transform="translate(2029.239 -2052.618)"/><path class="b" d="M-1767.442,2060.118a10.85,10.85,0,0,0-2.137-3.781,10.29,10.29,0,0,0-3.858-2.705,14.893,14.893,0,0,0-5.81-1.015h-6.763v1.732a9.7,9.7,0,0,1,2.034,1.764c.072.083.317.364.608.767,1.262.01,1.815.011,1.815.011h3.627a7.574,7.574,0,0,1,1.875.292,6.534,6.534,0,0,1,2.167,1.061,6.025,6.025,0,0,1,1.783,2.167,7.869,7.869,0,0,1,.722,3.612,7.828,7.828,0,0,1-.538,3,5.641,5.641,0,0,1-1.537,2.167,6.787,6.787,0,0,1-2.382,1.307,9.989,9.989,0,0,1-3.074.446h-4.222a10.914,10.914,0,0,1-1.442,1.62,10.62,10.62,0,0,1-1.437,1.107v1.576h7.87a12.6,12.6,0,0,0,4.365-.753,10.858,10.858,0,0,0,3.627-2.183,10.356,10.356,0,0,0,2.475-3.443,10.924,10.924,0,0,0,.907-4.534A13.62,13.62,0,0,0-1767.442,2060.118Z" transform="translate(1830.376 -2052.618)"/><path class="b" d="M-1747,2115" transform="translate(1792.598 -2110.728)"/><path class="b" d="M-1744,2320" transform="translate(1789.804 -2301.688)"/><path class="b" d="M-2409.283,2074.511a5.947,5.947,0,0,1-2.5-2.134,6.48,6.48,0,0,1-1.021-3.339h4.315a2.785,2.785,0,0,0,.4,1.167,2.079,2.079,0,0,0,.8.732,2.431,2.431,0,0,0,1.128.251,2.451,2.451,0,0,0,1.837-.663,2.56,2.56,0,0,0,.648-1.868v-.519a3.155,3.155,0,0,0-.526-1.952,1.781,1.781,0,0,0-1.5-.686h-1.875v-4.025h1.875a1.424,1.424,0,0,0,1.227-.6,2.838,2.838,0,0,0,.435-1.685v-.381a2.34,2.34,0,0,0-.48-1.578,1.686,1.686,0,0,0-1.349-.557,1.91,1.91,0,0,0-1.029.29,2.355,2.355,0,0,0-.785.839,3.994,3.994,0,0,0-.458,1.326h-4.3a7.933,7.933,0,0,1,1.09-3.5,6.083,6.083,0,0,1,2.371-2.241,6.907,6.907,0,0,1,3.262-.77,6.419,6.419,0,0,1,4.551,1.5,5.544,5.544,0,0,1,1.608,4.261v.671a4.654,4.654,0,0,1-.777,2.683,4.643,4.643,0,0,1-2.211,1.708,3.915,3.915,0,0,1,2.477,1.677,5.892,5.892,0,0,1,.876,3.339v.671a6.718,6.718,0,0,1-.762,3.309,4.985,4.985,0,0,1-2.226,2.088,7.938,7.938,0,0,1-3.521.717A8.385,8.385,0,0,1-2409.283,2074.511Z" transform="translate(2412.805 -2052.618)"/></g></g></svg>