<svg id="linkedin-seeklogo.com" xmlns="http://www.w3.org/2000/svg" width="140.052" height="35.272" viewBox="0 0 140.052 35.272">
  <path id="Path_3902" data-name="Path 3902" d="M371.582,190.271h29.462a2.905,2.905,0,0,0,2.9-2.9V157.9a2.905,2.905,0,0,0-2.9-2.9H371.582a2.905,2.905,0,0,0-2.9,2.9v29.462a2.905,2.905,0,0,0,2.9,2.9" transform="translate(-263.898 -154.999)" fill="none" fill-rule="evenodd"/>
  <path id="Path_3903" data-name="Path 3903" d="M371.582,190.272h29.463a2.905,2.905,0,0,0,2.9-2.9V157.9a2.905,2.905,0,0,0-2.9-2.9H371.582a2.905,2.905,0,0,0-2.9,2.9v29.463A2.905,2.905,0,0,0,371.582,190.272Zm10.582-21.786h4.928v2.48a5.784,5.784,0,0,1,5.13-2.74c4.878,0,6.541,2.2,6.541,7.441v9.418h-5.187v-8.316c0-2.756-.538-4.263-2.55-4.263-2.719,0-3.675,2.067-3.675,4.263v8.316h-5.187v-16.6Zm-8.3,16.6h5.187v-16.6h-5.187Zm5.758-22.3a3.164,3.164,0,1,1-3.164-3.164A3.165,3.165,0,0,1,379.622,162.78Z" transform="translate(-263.898 -154.999)" fill="blue" fill-rule="evenodd"/>
  <path id="Path_3904" data-name="Path 3904" d="M200.916,193.133h-4.492v-1.867h-.073a6.155,6.155,0,0,1-4.772,2.127c-5.662,0-8.3-3.553-8.3-8.559,0-4.971,2.775-8.559,7.781-8.559a5.214,5.214,0,0,1,4.668,2.127V168.235h5.187v24.9Zm-8.871-12.864c-2.379,0-3.785,1.96-3.785,4.693s1.407,4.436,3.785,4.436c2.419,0,3.891-1.7,3.891-4.436S194.432,180.269,192.045,180.269ZM180.62,190.378c-1.327,1.686-3.928,3.015-7.714,3.015-5.142,0-8.429-3.472-8.429-8.818,0-4.532,3.21-8.3,8.8-8.3,4.738,0,8.059,3.328,8.059,8.645a8.7,8.7,0,0,1-.25,1.978H169.227l.042.241a3.838,3.838,0,0,0,3.842,2.623,5.964,5.964,0,0,0,4.342-1.852l3.168,2.468Zm-3.859-7.362a3.58,3.58,0,0,0-3.588-3.11,3.709,3.709,0,0,0-3.969,3.11Zm-28.753-14.781h5.187v15.076l5.765-6.777h6.28l-7.259,7.919,7.377,8.68h-6.01l-6.154-7.667v7.667h-5.187v-24.9Zm-19.711,8.3h4.492v2.326h.072c.7-1.329,2.839-2.585,5.395-2.585,5.321,0,6.639,3.015,6.639,7.565v9.293h-5.187v-8.186c0-1.96-.1-4.5-2.8-4.5-2.729,0-3.427,2.3-3.427,4.5v8.186H128.3v-16.6Zm-5.706-8.17a2.982,2.982,0,1,1-2.982,2.982A3.08,3.08,0,0,1,122.591,168.365ZM120,193.133h5.187v-16.6H120Zm-18.673-24.9h5.187v19.711h10.374v5.187H101.324Z" transform="translate(-101.324 -163.048)" fill="blue" fill-rule="evenodd"/>
</svg>
