<svg xmlns="http://www.w3.org/2000/svg" width="46.64" height="16.589" viewBox="0 0 46.64 16.589"><defs><style>.a{fill:#03014c;}</style></defs><g transform="translate(0)"><path class="a" d="M-2200.4,2058.117a7.957,7.957,0,0,0-1.567-2.772,7.544,7.544,0,0,0-2.829-1.983,10.922,10.922,0,0,0-4.26-.744h-4.959v1.27a7.1,7.1,0,0,1,1.491,1.293c.053.061.232.267.446.562.926.007,1.332.008,1.332.008h2.659a5.561,5.561,0,0,1,1.375.214,4.793,4.793,0,0,1,1.589.778,4.414,4.414,0,0,1,1.307,1.589,5.771,5.771,0,0,1,.53,2.649,5.736,5.736,0,0,1-.395,2.2,4.135,4.135,0,0,1-1.127,1.589,4.98,4.98,0,0,1-1.747.958,7.322,7.322,0,0,1-2.253.327h-3.1a7.991,7.991,0,0,1-1.057,1.188,7.805,7.805,0,0,1-1.054.812v1.156h5.77a9.243,9.243,0,0,0,3.2-.552,7.958,7.958,0,0,0,2.66-1.6,7.593,7.593,0,0,0,1.814-2.525,8.007,8.007,0,0,0,.665-3.324A9.991,9.991,0,0,0-2200.4,2058.117Z" transform="translate(2223.992 -2052.618)"/><path class="a" d="M-1986.395,2058.117a7.957,7.957,0,0,0-1.567-2.772,7.543,7.543,0,0,0-2.829-1.983,10.919,10.919,0,0,0-4.26-.744h-4.959v1.27a7.111,7.111,0,0,1,1.491,1.293c.053.061.232.267.446.562.926.007,1.331.008,1.331.008h2.66a5.559,5.559,0,0,1,1.375.214,4.8,4.8,0,0,1,1.589.778,4.417,4.417,0,0,1,1.307,1.589,5.771,5.771,0,0,1,.53,2.649,5.739,5.739,0,0,1-.394,2.2,4.135,4.135,0,0,1-1.127,1.589,4.976,4.976,0,0,1-1.747.958,7.327,7.327,0,0,1-2.254.327h-3.1a8,8,0,0,1-1.057,1.188,7.8,7.8,0,0,1-1.053.812v1.156h5.77a9.241,9.241,0,0,0,3.2-.552,7.959,7.959,0,0,0,2.66-1.6,7.589,7.589,0,0,0,1.814-2.525,8.011,8.011,0,0,0,.665-3.324A9.983,9.983,0,0,0-1986.395,2058.117Z" transform="translate(2021.441 -2052.618)"/><path class="a" d="M-1772.4,2058.117a7.955,7.955,0,0,0-1.567-2.772,7.544,7.544,0,0,0-2.829-1.983,10.92,10.92,0,0,0-4.26-.744h-4.959v1.27a7.1,7.1,0,0,1,1.492,1.293c.053.061.232.267.446.562.926.007,1.331.008,1.331.008h2.66a5.558,5.558,0,0,1,1.375.214,4.8,4.8,0,0,1,1.589.778,4.421,4.421,0,0,1,1.307,1.589,5.77,5.77,0,0,1,.53,2.649,5.739,5.739,0,0,1-.394,2.2,4.138,4.138,0,0,1-1.127,1.589,4.976,4.976,0,0,1-1.747.958,7.326,7.326,0,0,1-2.254.327h-3.1a8.012,8.012,0,0,1-1.057,1.188,7.806,7.806,0,0,1-1.054.812v1.156h5.77a9.24,9.24,0,0,0,3.2-.552,7.96,7.96,0,0,0,2.66-1.6,7.593,7.593,0,0,0,1.814-2.525,8.009,8.009,0,0,0,.665-3.324A9.983,9.983,0,0,0-1772.4,2058.117Z" transform="translate(1818.54 -2052.618)"/><path class="a" d="M-1747,2115" transform="translate(1780.434 -2111.868)"/><path class="a" d="M-1744,2320" transform="translate(1777.584 -2306.573)"/><path class="a" d="M-2410.223,2068.67a4.36,4.36,0,0,1-1.833-1.565,4.75,4.75,0,0,1-.749-2.448h3.164a2.039,2.039,0,0,0,.3.855,1.522,1.522,0,0,0,.587.536,1.779,1.779,0,0,0,.827.185,1.8,1.8,0,0,0,1.346-.486,1.877,1.877,0,0,0,.475-1.369V2064a2.314,2.314,0,0,0-.385-1.431,1.307,1.307,0,0,0-1.1-.5h-1.375v-2.951h1.375a1.044,1.044,0,0,0,.9-.442,2.079,2.079,0,0,0,.319-1.235v-.279a1.718,1.718,0,0,0-.352-1.157,1.236,1.236,0,0,0-.99-.408,1.4,1.4,0,0,0-.754.212,1.723,1.723,0,0,0-.575.615,2.921,2.921,0,0,0-.336.972h-3.152a5.816,5.816,0,0,1,.8-2.566,4.462,4.462,0,0,1,1.738-1.643,5.065,5.065,0,0,1,2.392-.564,4.706,4.706,0,0,1,3.337,1.1,4.064,4.064,0,0,1,1.179,3.124v.492a3.413,3.413,0,0,1-.57,1.967,3.405,3.405,0,0,1-1.621,1.252,2.871,2.871,0,0,1,1.816,1.23,4.319,4.319,0,0,1,.643,2.448v.492a4.927,4.927,0,0,1-.559,2.426,3.656,3.656,0,0,1-1.632,1.531,5.824,5.824,0,0,1-2.582.525A6.149,6.149,0,0,1-2410.223,2068.67Z" transform="translate(2412.805 -2052.618)"/></g></svg>