<svg id="noun_tick_mark_1014399" data-name="noun_tick mark_1014399" xmlns="http://www.w3.org/2000/svg" width="62.437" height="62.437" viewBox="0 0 62.437 62.437">
  <g id="Group_691" data-name="Group 691" transform="translate(0 0)">
    <path id="Path_3905" data-name="Path 3905" d="M43.718,74.937A31.218,31.218,0,1,0,12.5,43.718,31.23,31.23,0,0,0,43.718,74.937Zm0-59.939A28.721,28.721,0,1,1,15,43.718,28.779,28.779,0,0,1,43.718,15Z" transform="translate(-12.5 -12.5)" fill="#3baa21"/>
    <path id="Path_3906" data-name="Path 3906" d="M42.448,57.271a1.252,1.252,0,0,0,.916.333,1.069,1.069,0,0,0,.832-.333l17.233-16.4a1.238,1.238,0,1,0-1.665-1.831l-16.4,15.568-8.991-8.991a1.236,1.236,0,0,0-1.748,1.748Z" transform="translate(-15.808 -16.895)" fill="#3baa21"/>
  </g>
</svg>
