<?xml version="1.0" encoding="UTF-8"?>
<svg id="Layer_2" data-name="Layer 2" xmlns="http://www.w3.org/2000/svg" viewBox="0 0 547.24 128.77">
  <defs>
    <style>
      .cls-1 {
        fill: #039797;
      }

      .cls-1, .cls-2 {
        stroke-width: 0px;
      }

      .cls-2 {
        fill: #fff;
      }
    </style>
  </defs>
  <g id="Layer_1-2" data-name="Layer 1">
    <g>
      <path class="cls-2" d="m25.12,100.63c4.92-3.51,7.52-8.13,7.54-14.03.04-16.68.01-33.36.02-50.04,0-.65-.04-1.29-.23-1.92-.47-1.6-1.68-2.56-3.37-2.7-1.87-.15-3.3.61-4.02,2.15-.38.82-.25,1.7-.25,2.55,0,16.03-.01,32.07,0,48.1,0,1.51-.06,3.01-.48,4.46-.82,2.8-2.66,4.75-5.38,5.6-5.44,1.7-10.99-2.48-11.02-8.37-.04-7.67-.01-15.35,0-23.02,0-.88-.08-1.7-.68-2.42-1.1-1.31-2.92-1.93-4.39-1.43-1.64.56-2.8,2.24-2.8,4.23-.02,7.76-.11,15.52.03,23.28.1,5.27,2.33,9.6,6.67,12.73,2.2,1.59,4.7,2.62,7.08,3.87,7.33,3.82,14.64,7.67,21.95,11.51,7.17,3.76,14.33,7.53,21.5,11.28,3.06,1.6,6.13,3.01,9.79,1.98,2.31-.65,4.32-1.69,5.92-3.41,2.26-2.43,3.23-5.37,3.21-8.71-.02-2.44-.03-12.92-.03-13.72,0-14.44,0-28.88,0-43.32,0-.47.02-.95-.01-1.42-.15-2.22-1.98-3.88-4.22-3.82-2.1.06-3.65,1.75-3.67,4,0,1.08,0,2.16,0,3.23,0,18.49,0,36.98,0,55.48,0,2.99-2.84,4.92-5.42,3.64-3.56-1.77-7.08-3.64-10.6-5.48-7.28-3.81-14.56-7.64-21.84-11.46-1.73-.91-3.47-1.83-5.3-2.8Z"/>
      <path class="cls-2" d="m46.7,51.33c0-2.46,0-4.91,0-7.37,0-5.43.01-10.86,0-16.29,0-2.51-1.59-4.21-3.88-4.23-2.49-.02-4.01,1.47-4.01,3.99,0,10.6-.03,44.8.01,48.2.03,2.85,3.16,4.63,5.67,3.28,1.57-.85,2.22-2.2,2.22-3.92,0-7.89,0-15.78,0-23.66Z"/>
      <path class="cls-2" d="m61.5,61.82c0-2.67,0-5.34,0-8.01,0-4.13.03-8.27-.03-12.4-.03-2.45-2.66-4.18-4.9-3.31-2.12.82-2.91,1.93-2.94,4.3-.03,3.1,0,6.2,0,9.3,0,9.82-.02,19.64,0,29.46,0,2.74,1.67,4.53,4.07,4.52,2.41,0,3.79-1.62,3.8-4.48,0-6.46,0-12.92,0-19.38Z"/>
      <path class="cls-1" d="m13.03,27.26c.07,1.42.05,2.85.25,4.25.25,1.82.56,3.66,1.36,5.34.74,1.57,2.22,2.26,3.55,1.74,1.7-.67,2.44-2.05,1.95-3.82-.3-1.08-.64-2.13-.81-3.24-.96-6.24.11-12.05,3.6-17.37,2.49-3.81,5.88-6.55,9.97-8.49,1.4-.66,2.08-1.94,1.83-3.35-.23-1.27-1.34-2.26-2.73-2.32-1.02-.04-1.89.43-2.78.91-10.53,5.64-15.72,14.55-16.19,26.35Z"/>
      <path class="cls-1" d="m42.46,11.04c-2.38-.24-4.88.42-7.18,1.65-4.15,2.23-7.11,5.52-8.32,10.17-.27,1.05.21,1.96.98,2.64.77.68,1.64,1.02,2.73.67,1.64-.53,1.96-2.02,2.59-3.31,2.26-4.66,6.54-6.6,11.68-5.7,4.58.8,7.96,4.97,8.16,9.69.09,2.17,1.32,3.48,3.2,3.41,1.69-.07,2.85-1.48,2.79-3.51-.24-8.47-7.53-16.03-16.63-15.71Z"/>
      <g>
        <path class="cls-2" d="m95.35,114.79v-46.57h15.7c13.71,0,22.55,9.31,22.55,23.29s-8.85,23.29-22.55,23.29h-15.7Zm7.58-6.59h8.12c9.12,0,14.9-6.25,14.9-16.7s-5.79-16.7-14.9-16.7h-8.12v33.4Z"/>
        <path class="cls-2" d="m136.46,71.62c0-2.86,2.26-4.92,5.19-4.92s5.12,2.06,5.12,4.92-2.26,4.86-5.12,4.86-5.19-2.06-5.19-4.86Zm1.4,43.18v-33.93h7.52v33.93h-7.52Z"/>
        <path class="cls-2" d="m150.57,119.39l6.85-2.06c1.26,3.79,4.46,5.59,9.12,5.59,5.12,0,8.25-2.79,8.25-8.18v-6.99h-.53c-2.33,3.99-5.92,6.25-10.98,6.25-8.45,0-13.97-6.59-13.97-16.83s5.52-16.97,13.97-16.97c4.99,0,8.65,2.26,10.98,6.25h.53l.73-5.59h7.12c-.33,6.05-.33,11.71-.33,17.56v16.5c0,8.32-5.46,13.84-15.77,13.84-8.05,0-14.04-3.33-15.97-9.38Zm24.22-22.29c0-6.19-3.46-10.45-8.98-10.45s-8.98,4.26-8.98,10.51,3.46,10.51,8.98,10.51,8.98-4.32,8.98-10.58Z"/>
        <path class="cls-2" d="m186.5,71.62c0-2.86,2.26-4.92,5.19-4.92s5.12,2.06,5.12,4.92-2.26,4.86-5.12,4.86-5.19-2.06-5.19-4.86Zm1.4,43.18v-33.93h7.52v33.93h-7.52Z"/>
        <path class="cls-2" d="m204.99,105.01v-18.03h-6.59v-6.12h7.05l1.46-9.45h5.59v9.45h9.45v6.12h-9.45v17.7c0,3.19,1.8,4.59,4.13,4.59,1.53,0,2.86-.33,4.39-1.26l2.06,5.19c-2.59,1.66-4.99,2.26-7.92,2.26-6.05,0-10.18-3.46-10.18-10.45Z"/>
        <path class="cls-2" d="m254.49,96.83c0,5.99,0,11.91.33,17.96h-6.52l-.67-5.92h-.53c-2.13,4.26-5.92,6.59-11.31,6.59-6.65,0-11.04-3.99-11.04-10.05,0-6.45,4.66-10.38,14.1-10.91l8.38-.47v-1.53c0-4.46-3.33-6.45-7.32-6.45-4.26,0-7.05,2.06-8.25,5.92l-6.52-1.93c1.4-6.39,7.19-9.85,14.77-9.85,9.25,0,14.57,4.46,14.57,12.04v4.59Zm-7.25,2.33l-6.85.47c-5.32.33-8.38,1.73-8.38,5.32,0,2.79,2.13,4.59,5.66,4.59,5.26,0,9.38-4.32,9.58-10.38Z"/>
        <path class="cls-2" d="m259.95,114.79v-46.57h7.52v46.57h-7.52Z"/>
        <path class="cls-2" d="m286.36,114.79v-46.57h15.7c13.71,0,22.55,9.31,22.55,23.29s-8.85,23.29-22.55,23.29h-15.7Zm7.58-6.59h8.12c9.12,0,14.9-6.25,14.9-16.7s-5.79-16.7-14.9-16.7h-8.12v33.4Z"/>
        <path class="cls-2" d="m359.22,100.16h-24.55c.67,6.05,4.12,9.51,9.31,9.51,3.59,0,6.19-1.53,7.92-5.26l6.72,2c-2.46,5.99-7.45,9.05-14.7,9.05-10.58,0-16.7-7.72-16.7-17.63s6.05-17.63,16.63-17.63c9.45,0,15.57,6.52,15.57,16.7,0,1.06-.07,2.33-.2,3.26Zm-24.48-5.32h17.56c-.6-5.79-3.86-8.85-8.45-8.85-4.92,0-8.25,3.26-9.12,8.85Z"/>
        <path class="cls-2" d="m359.95,114.79l10.91-17.3-10.25-16.63h8.38l7.25,12.71h.4l7.19-12.71h8.18l-10.25,16.7,10.91,17.23h-8.45l-7.72-13.11h-.4l-7.92,13.11h-8.25Z"/>
        <path class="cls-2" d="m399.27,105.01v-18.03h-6.59v-6.12h7.05l1.46-9.45h5.59v9.45h9.45v6.12h-9.45v17.7c0,3.19,1.8,4.59,4.13,4.59,1.53,0,2.86-.33,4.39-1.26l2.06,5.19c-2.59,1.66-4.99,2.26-7.92,2.26-6.05,0-10.18-3.46-10.18-10.45Z"/>
        <path class="cls-2" d="m450.23,100.16h-24.55c.67,6.05,4.13,9.51,9.31,9.51,3.59,0,6.19-1.53,7.92-5.26l6.72,2c-2.46,5.99-7.45,9.05-14.7,9.05-10.58,0-16.7-7.72-16.7-17.63s6.05-17.63,16.63-17.63c9.45,0,15.57,6.52,15.57,16.7,0,1.06-.07,2.33-.2,3.26Zm-24.48-5.32h17.56c-.6-5.79-3.86-8.85-8.45-8.85-4.92,0-8.25,3.26-9.11,8.85Z"/>
        <path class="cls-2" d="m475.05,80.26v7.32c-1.06-.13-1.6-.13-2.53-.13-5.26,0-10.71,3.13-10.71,12.71v14.64h-7.52v-15.83c0-6.05,0-12.04-.33-18.1h7.12l.93,6.79h.47c1.93-4.92,5.52-7.45,10.11-7.45.87,0,1.46,0,2.46.07Z"/>
        <path class="cls-2" d="m476.31,71.62c0-2.86,2.26-4.92,5.19-4.92s5.12,2.06,5.12,4.92-2.26,4.86-5.12,4.86-5.19-2.06-5.19-4.86Zm1.4,43.18v-33.93h7.52v33.93h-7.52Z"/>
        <path class="cls-2" d="m494.81,105.01v-18.03h-6.59v-6.12h7.05l1.46-9.45h5.59v9.45h9.45v6.12h-9.45v17.7c0,3.19,1.8,4.59,4.12,4.59,1.53,0,2.86-.33,4.39-1.26l2.06,5.19c-2.59,1.66-4.99,2.26-7.92,2.26-6.05,0-10.18-3.46-10.18-10.45Z"/>
        <path class="cls-2" d="m521.25,128.1l4.91-12.37-13.26-34.86h8.01l9.09,26.35h.4l9.02-26.35h7.81l-17.97,47.24h-8.01Z"/>
      </g>
    </g>
  </g>
</svg>