<svg width="213" height="60" viewBox="0 0 213 60" fill="none" xmlns="http://www.w3.org/2000/svg">
<path d="M27.3719 1.20825C12.2543 1.20825 0 13.4815 0 28.6224C0 43.7633 12.2543 56.0366 27.3719 56.0366C42.4895 56.0366 54.7439 43.7633 54.7439 28.6224C54.7439 13.4815 42.4856 1.20825 27.3719 1.20825Z" fill="#03007F"/>
<path d="M19.3357 17.742H18.4205C16.6884 17.742 15.7419 18.7215 15.7419 20.6765V30.1096C15.7419 32.5367 14.921 33.3903 13.0003 33.3903C11.4882 33.3903 10.2588 32.7255 9.28477 31.5297C9.1905 31.4038 7.20703 32.3479 7.20703 34.6845C7.20703 37.21 9.56756 38.7559 13.9469 38.7559C19.2689 38.7559 22.0733 36.0731 22.0733 30.208V20.6805C22.0733 18.7254 21.1306 17.7459 19.3317 17.7459L19.3357 17.742ZM27.5838 22.5057H26.9554C25.4118 22.5057 24.2453 23.2295 24.2453 25.4403V35.5342C24.2453 37.7725 25.3804 38.4688 27.0182 38.4688H27.6466C29.1902 38.4688 30.2939 37.7096 30.2939 35.5342V25.4403C30.2939 23.1705 29.2216 22.5057 27.5838 22.5057ZM27.2381 15.189C25.2861 15.189 24.0567 16.2943 24.0567 18.0291C24.0567 19.7639 25.3175 20.9007 27.3324 20.9007C29.3473 20.9007 30.5138 19.7954 30.5138 18.0291C30.5138 16.2629 29.253 15.189 27.2381 15.189ZM40.549 22.3484C35.3841 22.3484 31.9513 25.6291 31.9513 30.5187C31.9513 35.4083 35.2584 38.752 40.4548 38.752C45.6511 38.752 49.021 35.5342 49.021 30.5502C49.021 25.5661 45.6511 22.3484 40.549 22.3484ZM40.4862 34.1141C38.4713 34.1141 37.0848 32.6311 37.0848 30.5187C37.0848 28.4063 38.5027 26.9548 40.4862 26.9548C42.4697 26.9548 43.8875 28.4378 43.8875 30.5502C43.8875 32.6626 42.4382 34.1141 40.4862 34.1141Z" fill="white"/>
<path d="M72.975 3.017L75.003 9.101H75.029L76.966 3.017H79.839V12H77.928V5.695H77.902L75.757 12H74.184L72.039 5.747H72.013V12H70.102V3.017H72.975ZM88.3203 8.646C88.3203 9.35667 88.1773 9.98067 87.8913 10.518C87.6053 11.0467 87.2067 11.4583 86.6953 11.753C86.184 12.039 85.5947 12.182 84.9273 12.182C84.2427 12.182 83.6447 12.0347 83.1333 11.74C82.622 11.4453 82.2277 11.0337 81.9503 10.505C81.673 9.96767 81.5343 9.348 81.5343 8.646C81.5343 7.93533 81.673 7.31567 81.9503 6.787C82.2277 6.24967 82.622 5.83367 83.1333 5.539C83.6447 5.24433 84.2427 5.097 84.9273 5.097C85.612 5.097 86.21 5.24433 86.7213 5.539C87.2327 5.83367 87.627 6.24967 87.9043 6.787C88.1817 7.32433 88.3203 7.944 88.3203 8.646ZM84.9273 10.778C85.43 10.778 85.8113 10.5917 86.0713 10.219C86.34 9.84633 86.4743 9.322 86.4743 8.646C86.4743 8.022 86.353 7.51067 86.1103 7.112C85.8677 6.70467 85.469 6.501 84.9143 6.501C84.429 6.501 84.052 6.68733 83.7833 7.06C83.5147 7.43267 83.3803 7.96133 83.3803 8.646C83.3803 9.33067 83.5103 9.85933 83.7703 10.232C84.039 10.596 84.4247 10.778 84.9273 10.778ZM96.0073 12H94.1613V8.308C94.1613 7.684 94.0616 7.23767 93.8623 6.969C93.6716 6.70033 93.3726 6.566 92.9653 6.566C92.5406 6.566 92.22 6.70467 92.0033 6.982C91.7866 7.25067 91.6783 7.69267 91.6783 8.308V12H89.8323V5.279H91.6003V6.215H91.6263C91.843 5.86833 92.1246 5.59533 92.4713 5.396C92.8266 5.19667 93.2036 5.097 93.6023 5.097C94.4083 5.097 95.0106 5.32233 95.4093 5.773C95.808 6.215 96.0073 6.88667 96.0073 7.788V12ZM103.959 9.088H99.2401C99.2661 9.66 99.4178 10.089 99.6951 10.375C99.9725 10.6523 100.371 10.791 100.891 10.791C101.246 10.791 101.541 10.7217 101.775 10.583C102.009 10.4443 102.152 10.2667 102.204 10.05H103.842C103.66 10.7433 103.305 11.272 102.776 11.636C102.256 12 101.597 12.182 100.8 12.182C100.107 12.182 99.5045 12.039 98.9931 11.753C98.4818 11.4583 98.0875 11.0467 97.8101 10.518C97.5415 9.98067 97.4071 9.35667 97.4071 8.646C97.4071 7.97867 97.5458 7.37633 97.8231 6.839C98.1091 6.293 98.5035 5.86833 99.0061 5.565C99.5175 5.253 100.098 5.097 100.748 5.097C101.441 5.097 102.026 5.25733 102.503 5.578C102.988 5.89 103.352 6.32333 103.595 6.878C103.846 7.43267 103.972 8.061 103.972 8.763L103.959 9.088ZM102.126 7.918C102.039 6.96467 101.571 6.488 100.722 6.488C100.297 6.488 99.9551 6.61367 99.6951 6.865C99.4438 7.11633 99.2921 7.46733 99.2401 7.918H102.126ZM108.029 9.868H108.055L109.459 5.279H111.37L109.056 11.74C108.796 12.5027 108.467 13.0833 108.068 13.482C107.678 13.8893 107.258 14.158 106.807 14.288C106.365 14.418 105.871 14.483 105.325 14.483V12.949C105.793 12.949 106.166 12.8753 106.443 12.728C106.729 12.5893 106.933 12.3467 107.054 12L104.623 5.279H106.586L108.029 9.868ZM113.784 10.44C113.784 11.1073 113.68 11.74 113.472 12.338C113.264 12.936 112.969 13.482 112.588 13.976H111.184C111.435 13.5167 111.639 12.9793 111.795 12.364C111.951 11.7573 112.029 11.1247 112.029 10.466C112.029 10.3707 112.02 10.2103 112.003 9.985H113.784V10.44ZM122.571 3.017L124.599 9.101H124.625L126.562 3.017H129.435V12H127.524V5.695H127.498L125.353 12H123.78L121.635 5.747H121.609V12H119.698V3.017H122.571ZM135.395 7.593C135.395 7.151 135.308 6.83033 135.135 6.631C134.97 6.423 134.68 6.319 134.264 6.319C133.9 6.319 133.623 6.384 133.432 6.514C133.241 6.644 133.129 6.84767 133.094 7.125H131.261C131.296 6.46633 131.586 5.96367 132.132 5.617C132.678 5.26167 133.419 5.084 134.355 5.084C135.352 5.084 136.08 5.29633 136.539 5.721C137.007 6.14567 137.241 6.813 137.241 7.723V12H135.577L135.473 11.129H135.447C135.3 11.4323 135.048 11.6837 134.693 11.883C134.346 12.0823 133.909 12.182 133.38 12.182C132.912 12.182 132.5 12.0997 132.145 11.935C131.798 11.7703 131.53 11.5277 131.339 11.207C131.148 10.8863 131.053 10.5007 131.053 10.05C131.053 9.296 131.339 8.74133 131.911 8.386C132.492 8.03067 133.319 7.853 134.394 7.853H135.395V7.593ZM134.641 8.945C134.078 8.945 133.649 9.01867 133.354 9.166C133.059 9.31333 132.912 9.56033 132.912 9.907C132.912 10.2103 133.003 10.44 133.185 10.596C133.376 10.7433 133.631 10.817 133.952 10.817C134.229 10.817 134.476 10.7607 134.693 10.648C134.918 10.5353 135.092 10.375 135.213 10.167C135.334 9.95033 135.395 9.69033 135.395 9.387V8.945H134.641ZM141.286 5.279H142.599V6.514H141.286V9.478C141.286 9.79 141.316 10.0327 141.377 10.206C141.438 10.3707 141.529 10.4877 141.65 10.557C141.78 10.6177 141.945 10.648 142.144 10.648C142.317 10.648 142.482 10.6263 142.638 10.583V12C142.387 12.078 142.096 12.117 141.767 12.117C141.022 12.117 140.445 11.935 140.038 11.571C139.639 11.1983 139.44 10.5787 139.44 9.712V6.514H138.361V5.279H139.44V3.264H141.286V5.279ZM150.064 9.088H145.345C145.371 9.66 145.523 10.089 145.8 10.375C146.078 10.6523 146.476 10.791 146.996 10.791C147.352 10.791 147.646 10.7217 147.88 10.583C148.114 10.4443 148.257 10.2667 148.309 10.05H149.947C149.765 10.7433 149.41 11.272 148.881 11.636C148.361 12 147.703 12.182 146.905 12.182C146.212 12.182 145.61 12.039 145.098 11.753C144.587 11.4583 144.193 11.0467 143.915 10.518C143.647 9.98067 143.512 9.35667 143.512 8.646C143.512 7.97867 143.651 7.37633 143.928 6.839C144.214 6.293 144.609 5.86833 145.111 5.565C145.623 5.253 146.203 5.097 146.853 5.097C147.547 5.097 148.132 5.25733 148.608 5.578C149.094 5.89 149.458 6.32333 149.7 6.878C149.952 7.43267 150.077 8.061 150.077 8.763L150.064 9.088ZM148.231 7.918C148.145 6.96467 147.677 6.488 146.827 6.488C146.403 6.488 146.06 6.61367 145.8 6.865C145.549 7.11633 145.397 7.46733 145.345 7.918H148.231ZM155.747 6.891C155.686 6.87367 155.608 6.86067 155.513 6.852C155.417 6.83467 155.305 6.826 155.175 6.826C154.559 6.826 154.096 7.021 153.784 7.411C153.48 7.801 153.329 8.321 153.329 8.971V12H151.483V5.279H153.238V6.527H153.264C153.42 6.09367 153.667 5.747 154.005 5.487C154.351 5.227 154.75 5.097 155.201 5.097C155.409 5.097 155.591 5.11867 155.747 5.162V6.891ZM158.859 3.29C158.859 3.48933 158.811 3.667 158.716 3.823C158.629 3.979 158.504 4.10467 158.339 4.2C158.174 4.28667 157.988 4.33 157.78 4.33C157.572 4.33 157.386 4.28667 157.221 4.2C157.056 4.10467 156.926 3.979 156.831 3.823C156.744 3.667 156.701 3.48933 156.701 3.29C156.701 3.09067 156.744 2.913 156.831 2.757C156.926 2.601 157.056 2.47967 157.221 2.393C157.386 2.29767 157.572 2.25 157.78 2.25C157.988 2.25 158.174 2.29767 158.339 2.393C158.504 2.47967 158.629 2.601 158.716 2.757C158.811 2.913 158.859 3.09067 158.859 3.29ZM158.703 5.279V12H156.857V5.279H158.703ZM164.533 7.593C164.533 7.151 164.446 6.83033 164.273 6.631C164.108 6.423 163.818 6.319 163.402 6.319C163.038 6.319 162.761 6.384 162.57 6.514C162.379 6.644 162.267 6.84767 162.232 7.125H160.399C160.434 6.46633 160.724 5.96367 161.27 5.617C161.816 5.26167 162.557 5.084 163.493 5.084C164.49 5.084 165.218 5.29633 165.677 5.721C166.145 6.14567 166.379 6.813 166.379 7.723V12H164.715L164.611 11.129H164.585C164.438 11.4323 164.186 11.6837 163.831 11.883C163.484 12.0823 163.047 12.182 162.518 12.182C162.05 12.182 161.638 12.0997 161.283 11.935C160.936 11.7703 160.668 11.5277 160.477 11.207C160.286 10.8863 160.191 10.5007 160.191 10.05C160.191 9.296 160.477 8.74133 161.049 8.386C161.63 8.03067 162.457 7.853 163.532 7.853H164.533V7.593ZM163.779 8.945C163.216 8.945 162.787 9.01867 162.492 9.166C162.197 9.31333 162.05 9.56033 162.05 9.907C162.05 10.2103 162.141 10.44 162.323 10.596C162.514 10.7433 162.769 10.817 163.09 10.817C163.367 10.817 163.614 10.7607 163.831 10.648C164.056 10.5353 164.23 10.375 164.351 10.167C164.472 9.95033 164.533 9.69033 164.533 9.387V8.945H163.779ZM169.995 2.718V12H168.149V2.718H169.995Z" fill="white"/>
<path d="M75.692 18.4057C75.692 18.8737 75.549 19.3027 75.263 19.6927C74.9856 20.074 74.5783 20.4033 74.041 20.6807L75.276 22.2017C75.354 22.063 75.4146 21.8897 75.458 21.6817C75.51 21.4737 75.536 21.2743 75.536 21.0837H77.122C77.0873 21.5257 76.992 21.9417 76.836 22.3317C76.6886 22.7217 76.5023 23.0597 76.277 23.3457L78.058 25.4257H75.809L75.159 24.6327C74.8036 24.9707 74.4006 25.2177 73.95 25.3737C73.4993 25.5297 72.988 25.6077 72.416 25.6077C71.8873 25.6077 71.4106 25.4993 70.986 25.2827C70.57 25.066 70.2406 24.7627 69.998 24.3727C69.764 23.974 69.647 23.519 69.647 23.0077C69.647 22.4357 69.8203 21.9243 70.167 21.4737C70.5136 21.0143 71.0206 20.62 71.688 20.2907C71.376 19.9353 71.1506 19.6017 71.012 19.2897C70.882 18.9777 70.817 18.67 70.817 18.3667C70.817 17.9593 70.921 17.5953 71.129 17.2747C71.3456 16.954 71.6403 16.7027 72.013 16.5207C72.3943 16.3387 72.819 16.2477 73.287 16.2477C73.729 16.2477 74.132 16.33 74.496 16.4947C74.86 16.6593 75.1503 16.9063 75.367 17.2357C75.5836 17.5563 75.692 17.9463 75.692 18.4057ZM72.481 18.3147C72.481 18.514 72.5286 18.7133 72.624 18.9127C72.728 19.112 72.9186 19.359 73.196 19.6537C73.508 19.463 73.7333 19.2593 73.872 19.0427C74.0106 18.826 74.08 18.579 74.08 18.3017C74.08 18.085 74.002 17.8987 73.846 17.7427C73.6986 17.578 73.5123 17.4957 73.287 17.4957C73.0616 17.4957 72.871 17.5693 72.715 17.7167C72.559 17.864 72.481 18.0633 72.481 18.3147ZM72.546 24.0477C72.8666 24.0477 73.1656 24 73.443 23.9047C73.7203 23.8093 73.9716 23.6403 74.197 23.3977L72.572 21.3957C71.7746 21.751 71.376 22.2667 71.376 22.9427C71.376 23.2807 71.4843 23.5493 71.701 23.7487C71.9176 23.948 72.1993 24.0477 72.546 24.0477ZM89.0113 19.2377C88.9679 18.995 88.8596 18.7783 88.6863 18.5877C88.5129 18.3883 88.2876 18.2323 88.0103 18.1197C87.7416 18.007 87.4426 17.9507 87.1133 17.9507C86.5933 17.9507 86.1513 18.0763 85.7873 18.3277C85.4319 18.579 85.1633 18.93 84.9813 19.3807C84.8079 19.8313 84.7213 20.36 84.7213 20.9667C84.7213 21.5387 84.8079 22.0457 84.9813 22.4877C85.1633 22.9297 85.4363 23.2807 85.8003 23.5407C86.1643 23.792 86.6106 23.9177 87.1393 23.9177C87.6939 23.9177 88.1359 23.779 88.4653 23.5017C88.7946 23.2157 89.0026 22.804 89.0893 22.2667H91.0653C91.0046 22.9427 90.8009 23.5363 90.4543 24.0477C90.1076 24.5503 89.6439 24.9403 89.0633 25.2177C88.4913 25.495 87.8369 25.6337 87.1003 25.6337C86.1903 25.6337 85.4016 25.4343 84.7343 25.0357C84.0756 24.6283 83.5686 24.0737 83.2133 23.3717C82.8579 22.661 82.6803 21.8593 82.6803 20.9667C82.6803 20.074 82.8579 19.268 83.2133 18.5487C83.5686 17.8293 84.0799 17.266 84.7473 16.8587C85.4146 16.4427 86.1989 16.2347 87.1003 16.2347C87.7849 16.2347 88.4089 16.356 88.9723 16.5987C89.5356 16.8327 89.9949 17.1793 90.3503 17.6387C90.7056 18.0893 90.9179 18.6223 90.9873 19.2377H89.0113ZM99.1682 22.0717C99.1682 22.7823 99.0252 23.4063 98.7392 23.9437C98.4532 24.4723 98.0546 24.884 97.5432 25.1787C97.0319 25.4647 96.4426 25.6077 95.7752 25.6077C95.0906 25.6077 94.4926 25.4603 93.9812 25.1657C93.4699 24.871 93.0756 24.4593 92.7982 23.9307C92.5209 23.3933 92.3822 22.7737 92.3822 22.0717C92.3822 21.361 92.5209 20.7413 92.7982 20.2127C93.0756 19.6753 93.4699 19.2593 93.9812 18.9647C94.4926 18.67 95.0906 18.5227 95.7752 18.5227C96.4599 18.5227 97.0579 18.67 97.5692 18.9647C98.0806 19.2593 98.4749 19.6753 98.7522 20.2127C99.0296 20.75 99.1682 21.3697 99.1682 22.0717ZM95.7752 24.2037C96.2779 24.2037 96.6592 24.0173 96.9192 23.6447C97.1879 23.272 97.3222 22.7477 97.3222 22.0717C97.3222 21.4477 97.2009 20.9363 96.9582 20.5377C96.7156 20.1303 96.3169 19.9267 95.7622 19.9267C95.2769 19.9267 94.8999 20.113 94.6312 20.4857C94.3626 20.8583 94.2282 21.387 94.2282 22.0717C94.2282 22.7563 94.3582 23.285 94.6182 23.6577C94.8869 24.0217 95.2726 24.2037 95.7752 24.2037ZM106.4 19.6407C106.643 19.2767 106.938 18.9993 107.284 18.8087C107.631 18.618 108.021 18.5227 108.454 18.5227C109.2 18.5227 109.772 18.735 110.17 19.1597C110.569 19.5757 110.768 20.1607 110.768 20.9147V25.4257H108.922V21.7337C108.922 21.1097 108.831 20.6633 108.649 20.3947C108.476 20.126 108.207 19.9917 107.843 19.9917C107.462 19.9917 107.172 20.1303 106.972 20.4077C106.773 20.6763 106.673 21.1183 106.673 21.7337V25.4257H104.827V21.7337C104.827 21.1097 104.736 20.6633 104.554 20.3947C104.381 20.126 104.112 19.9917 103.748 19.9917C103.367 19.9917 103.077 20.1303 102.877 20.4077C102.678 20.6763 102.578 21.1183 102.578 21.7337V25.4257H100.732V18.7047H102.474V19.6147H102.5C102.994 18.8867 103.662 18.5227 104.502 18.5227C104.97 18.5227 105.365 18.6223 105.685 18.8217C106.006 19.0123 106.244 19.2853 106.4 19.6407ZM119.159 22.1367C119.159 22.7693 119.046 23.35 118.821 23.8787C118.604 24.3987 118.279 24.819 117.846 25.1397C117.421 25.4517 116.91 25.6077 116.312 25.6077C115.905 25.6077 115.532 25.521 115.194 25.3477C114.856 25.1657 114.579 24.9143 114.362 24.5937H114.336V27.7917H112.49V18.7047H114.258V19.5627H114.271C114.704 18.8693 115.354 18.5227 116.221 18.5227C116.854 18.5227 117.391 18.683 117.833 19.0037C118.275 19.3157 118.604 19.7447 118.821 20.2907C119.046 20.8367 119.159 21.452 119.159 22.1367ZM114.271 22.0847C114.271 22.7173 114.401 23.2287 114.661 23.6187C114.921 24.0087 115.302 24.2037 115.805 24.2037C116.316 24.2037 116.693 24.013 116.936 23.6317C117.187 23.2417 117.313 22.726 117.313 22.0847C117.313 21.712 117.261 21.3653 117.157 21.0447C117.062 20.7153 116.897 20.4467 116.663 20.2387C116.438 20.0307 116.143 19.9267 115.779 19.9267C115.302 19.9267 114.93 20.1173 114.661 20.4987C114.401 20.8713 114.271 21.4 114.271 22.0847ZM122.491 16.1437V25.4257H120.645V16.1437H122.491ZM126.319 16.7157C126.319 16.915 126.271 17.0927 126.176 17.2487C126.089 17.4047 125.963 17.5303 125.799 17.6257C125.634 17.7123 125.448 17.7557 125.24 17.7557C125.032 17.7557 124.845 17.7123 124.681 17.6257C124.516 17.5303 124.386 17.4047 124.291 17.2487C124.204 17.0927 124.161 16.915 124.161 16.7157C124.161 16.5163 124.204 16.3387 124.291 16.1827C124.386 16.0267 124.516 15.9053 124.681 15.8187C124.845 15.7233 125.032 15.6757 125.24 15.6757C125.448 15.6757 125.634 15.7233 125.799 15.8187C125.963 15.9053 126.089 16.0267 126.176 16.1827C126.271 16.3387 126.319 16.5163 126.319 16.7157ZM126.163 18.7047V25.4257H124.317V18.7047H126.163ZM131.993 21.0187C131.993 20.5767 131.906 20.256 131.733 20.0567C131.568 19.8487 131.278 19.7447 130.862 19.7447C130.498 19.7447 130.22 19.8097 130.03 19.9397C129.839 20.0697 129.726 20.2733 129.692 20.5507H127.859C127.893 19.892 128.184 19.3893 128.73 19.0427C129.276 18.6873 130.017 18.5097 130.953 18.5097C131.949 18.5097 132.677 18.722 133.137 19.1467C133.605 19.5713 133.839 20.2387 133.839 21.1487V25.4257H132.175L132.071 24.5547H132.045C131.897 24.858 131.646 25.1093 131.291 25.3087C130.944 25.508 130.506 25.6077 129.978 25.6077C129.51 25.6077 129.098 25.5253 128.743 25.3607C128.396 25.196 128.127 24.9533 127.937 24.6327C127.746 24.312 127.651 23.9263 127.651 23.4757C127.651 22.7217 127.937 22.167 128.509 21.8117C129.089 21.4563 129.917 21.2787 130.992 21.2787H131.993V21.0187ZM131.239 22.3707C130.675 22.3707 130.246 22.4443 129.952 22.5917C129.657 22.739 129.51 22.986 129.51 23.3327C129.51 23.636 129.601 23.8657 129.783 24.0217C129.973 24.169 130.229 24.2427 130.55 24.2427C130.827 24.2427 131.074 24.1863 131.291 24.0737C131.516 23.961 131.689 23.8007 131.811 23.5927C131.932 23.376 131.993 23.116 131.993 22.8127V22.3707H131.239ZM141.732 25.4257H139.886V21.7337C139.886 21.1097 139.786 20.6633 139.587 20.3947C139.396 20.126 139.097 19.9917 138.69 19.9917C138.265 19.9917 137.944 20.1303 137.728 20.4077C137.511 20.6763 137.403 21.1183 137.403 21.7337V25.4257H135.557V18.7047H137.325V19.6407H137.351C137.567 19.294 137.849 19.021 138.196 18.8217C138.551 18.6223 138.928 18.5227 139.327 18.5227C140.133 18.5227 140.735 18.748 141.134 19.1987C141.532 19.6407 141.732 20.3123 141.732 21.2137V25.4257ZM147.877 20.8627C147.842 20.5507 147.721 20.3167 147.513 20.1607C147.313 20.0047 147.036 19.9267 146.681 19.9267C146.178 19.9267 145.784 20.113 145.498 20.4857C145.22 20.8583 145.082 21.3697 145.082 22.0197C145.082 22.6957 145.212 23.2287 145.472 23.6187C145.74 24.0087 146.13 24.2037 146.642 24.2037C147.006 24.2037 147.296 24.1127 147.513 23.9307C147.738 23.7487 147.872 23.4757 147.916 23.1117H149.697C149.636 23.6403 149.467 24.091 149.19 24.4637C148.912 24.8363 148.548 25.1223 148.098 25.3217C147.647 25.5123 147.127 25.6077 146.538 25.6077C145.853 25.6077 145.259 25.4603 144.757 25.1657C144.263 24.8623 143.886 24.4463 143.626 23.9177C143.366 23.389 143.236 22.791 143.236 22.1237C143.236 21.3957 143.383 20.763 143.678 20.2257C143.972 19.6797 144.38 19.2593 144.9 18.9647C145.428 18.67 146.031 18.5227 146.707 18.5227C147.27 18.5227 147.768 18.618 148.202 18.8087C148.635 18.9993 148.977 19.2723 149.229 19.6277C149.489 19.9743 149.632 20.386 149.658 20.8627H147.877ZM157.329 22.5137H152.61C152.636 23.0857 152.788 23.5147 153.065 23.8007C153.343 24.078 153.741 24.2167 154.261 24.2167C154.617 24.2167 154.911 24.1473 155.145 24.0087C155.379 23.87 155.522 23.6923 155.574 23.4757H157.212C157.03 24.169 156.675 24.6977 156.146 25.0617C155.626 25.4257 154.968 25.6077 154.17 25.6077C153.477 25.6077 152.875 25.4647 152.363 25.1787C151.852 24.884 151.458 24.4723 151.18 23.9437C150.912 23.4063 150.777 22.7823 150.777 22.0717C150.777 21.4043 150.916 20.802 151.193 20.2647C151.479 19.7187 151.874 19.294 152.376 18.9907C152.888 18.6787 153.468 18.5227 154.118 18.5227C154.812 18.5227 155.397 18.683 155.873 19.0037C156.359 19.3157 156.723 19.749 156.965 20.3037C157.217 20.8583 157.342 21.4867 157.342 22.1887L157.329 22.5137ZM155.496 21.3437C155.41 20.3903 154.942 19.9137 154.092 19.9137C153.668 19.9137 153.325 20.0393 153.065 20.2907C152.814 20.542 152.662 20.893 152.61 21.3437H155.496Z" fill="white"/>
<path fill-rule="evenodd" clip-rule="evenodd" d="M180.547 32.139L68.817 31.1281C68.817 31.1281 66.9828 46.7646 55.6475 56.1426C55.5926 56.1898 55.6436 56.1348 55.7418 56.1426C56.0089 56.1584 56.6373 56.1426 56.6373 56.1426H182.684" fill="#808184"/>
<path d="M82.5563 37.7631L86.4263 48.1281H83.9813L83.2163 45.9081H79.3913L78.6113 48.1281H76.2263L80.1563 37.7631H82.5563ZM81.3263 40.4031L80.0063 44.1531H82.6313L81.3563 40.4031H81.3263ZM94.8952 40.9881C94.8452 40.7081 94.7202 40.4581 94.5202 40.2381C94.3202 40.0081 94.0602 39.8281 93.7402 39.6981C93.4302 39.5681 93.0852 39.5031 92.7052 39.5031C92.1052 39.5031 91.5952 39.6481 91.1752 39.9381C90.7652 40.2281 90.4552 40.6331 90.2452 41.1531C90.0452 41.6731 89.9452 42.2831 89.9452 42.9831C89.9452 43.6431 90.0452 44.2281 90.2452 44.7381C90.4552 45.2481 90.7702 45.6531 91.1902 45.9531C91.6102 46.2431 92.1252 46.3881 92.7352 46.3881C93.3752 46.3881 93.8852 46.2281 94.2652 45.9081C94.6452 45.5781 94.8852 45.1031 94.9852 44.4831H97.2652C97.1952 45.2631 96.9602 45.9481 96.5602 46.5381C96.1602 47.1181 95.6252 47.5681 94.9552 47.8881C94.2952 48.2081 93.5402 48.3681 92.6902 48.3681C91.6402 48.3681 90.7302 48.1381 89.9602 47.6781C89.2002 47.2081 88.6152 46.5681 88.2052 45.7581C87.7952 44.9381 87.5902 44.0131 87.5902 42.9831C87.5902 41.9531 87.7952 41.0231 88.2052 40.1931C88.6152 39.3631 89.2052 38.7131 89.9752 38.2431C90.7452 37.7631 91.6502 37.5231 92.6902 37.5231C93.4802 37.5231 94.2002 37.6631 94.8502 37.9431C95.5002 38.2131 96.0302 38.6131 96.4402 39.1431C96.8502 39.6631 97.0952 40.2781 97.1752 40.9881H94.8952ZM104.77 37.7631L108.64 48.1281H106.195L105.43 45.9081H101.605L100.825 48.1281H98.4398L102.37 37.7631H104.77ZM103.54 40.4031L102.22 44.1531H104.845L103.57 40.4031H103.54ZM114.754 37.7631C115.704 37.7631 116.534 37.9681 117.244 38.3781C117.964 38.7781 118.514 39.3631 118.894 40.1331C119.284 40.9031 119.479 41.8231 119.479 42.8931C119.479 43.9831 119.289 44.9231 118.909 45.7131C118.529 46.4931 117.984 47.0931 117.274 47.5131C116.564 47.9231 115.724 48.1281 114.754 48.1281H110.239V37.7631H114.754ZM114.544 46.1331C115.034 46.1331 115.474 46.0281 115.864 45.8181C116.254 45.5981 116.559 45.2631 116.779 44.8131C117.009 44.3531 117.124 43.7731 117.124 43.0731C117.124 41.9231 116.874 41.0831 116.374 40.5531C115.874 40.0231 115.139 39.7581 114.169 39.7581H112.594V46.1331H114.544ZM129.578 37.7631V39.7581H124.118V41.8881H129.128V43.7181H124.118V46.1331H129.698V48.1281H121.763V37.7631H129.578ZM135.284 37.7631L137.624 44.7831H137.654L139.889 37.7631H143.204V48.1281H140.999V40.8531H140.969L138.494 48.1281H136.679L134.204 40.9131H134.174V48.1281H131.969V37.7631H135.284ZM147.41 37.7631L149.78 41.8281L152.135 37.7631H154.76L150.92 44.1681V48.1281H148.565V44.1081L144.77 37.7631H147.41Z" fill="white"/>
<path d="M189.593 59.2978C200.923 59.2978 210.108 50.0991 210.108 38.7519C210.108 27.4048 200.923 18.2061 189.593 18.2061C178.264 18.2061 169.079 27.4048 169.079 38.7519C169.079 50.0991 178.264 59.2978 189.593 59.2978Z" fill="white"/>
<path d="M207.836 36.6237C200.094 44.4872 191.658 44.9278 185.731 44.5305C174.894 43.8027 172.408 39.7392 172.408 39.7392C173.029 48.7238 180.503 55.8164 189.631 55.8164C198.759 55.8164 206.174 48.8851 206.826 39.932L207.007 38.9446C207.007 38.9446 207.07 38.8423 208.213 37.1272L209.399 35.0463L207.84 36.6237H207.836Z" fill="#03007F"/>
<path d="M204.918 35.2194C205.975 34.2714 206.442 33.8741 205.924 32.5602C204.808 29.7476 203.936 28.0404 201.128 25.5503C200.052 24.5984 198.41 23.3199 197.032 22.8557C192.464 20.7236 186.804 21.475 186.804 21.475C184.683 21.9903 182.13 22.7888 180.292 24.0319C178.501 25.2435 176.812 26.6636 176.003 28.5754C174.946 31.0851 175.174 33.465 177.13 35.4004C180.174 38.4176 184.302 39.5977 188.391 39.8809C191.175 40.0737 193.681 39.9399 196.407 39.2869C196.407 39.2869 201.914 37.9062 204.918 35.2116V35.2194Z" fill="#1138B7"/>
<path d="M208.029 33.0125L212.185 32.2769L212.09 36.5017L211.156 33.4924L208.029 33.0125Z" fill="#03007F"/>
</svg>
